<svg width="62" height="62" viewBox="0 0 62 62" fill="none" xmlns="http://www.w3.org/2000/svg">
<rect width="62" height="62" rx="20" fill="#7A2700"/>
<path d="M10 21.125C10 18.2945 12.2945 16 15.125 16H45.875C48.7055 16 51 18.2945 51 21.125V41.625C51 44.4555 48.7055 46.75 45.875 46.75H15.125C12.2945 46.75 10 44.4555 10 41.625V21.125ZM15.125 18.5625C13.7098 18.5625 12.5625 19.7098 12.5625 21.125V21.6808L30.5 32.4433L48.4375 21.6808V21.125C48.4375 19.7098 47.2902 18.5625 45.875 18.5625H15.125ZM48.4375 24.6692L36.3731 31.9078L48.4375 39.3321V24.6692ZM48.351 42.2877L33.8974 33.3932L30.5 35.4317L27.1026 33.3932L12.649 42.2877C12.9411 43.3817 13.9389 44.1875 15.125 44.1875H45.875C47.0611 44.1875 48.0589 43.3817 48.351 42.2877ZM12.5625 39.3321L24.6269 31.9078L12.5625 24.6692V39.3321Z" fill="white"/>
</svg>
