<svg width="68" height="70" viewBox="0 0 68 70" fill="none" xmlns="http://www.w3.org/2000/svg">
<g filter="url(#filter0_d_11_1654)">
<rect x="4" width="60" height="61.3333" rx="15" fill="#131313"/>
</g>
<g clip-path="url(#clip0_11_1654)">
<path d="M27.6406 53.3438C31.7312 53.3438 35.0312 50.0437 35.0312 45.9531V38.5625H27.6406C23.55 38.5625 20.25 41.8625 20.25 45.9531C20.25 50.0437 23.55 53.3438 27.6406 53.3438Z" fill="#0ACF83"/>
<path d="M20.25 31.1719C20.25 27.0813 23.55 23.7812 27.6406 23.7812H35.0312V38.5625H27.6406C23.55 38.5625 20.25 35.2625 20.25 31.1719Z" fill="#A259FF"/>
<path d="M20.25 16.3906C20.25 12.3 23.55 9 27.6406 9H35.0312V23.7812H27.6406C23.55 23.7812 20.25 20.4812 20.25 16.3906Z" fill="#F24E1E"/>
<path d="M35.0312 9H42.4219C46.5125 9 49.8125 12.3 49.8125 16.3906C49.8125 20.4812 46.5125 23.7812 42.4219 23.7812H35.0312V9Z" fill="#FF7262"/>
<path d="M49.8125 31.1719C49.8125 35.2625 46.5125 38.5625 42.4219 38.5625C38.3313 38.5625 35.0312 35.2625 35.0312 31.1719C35.0312 27.0813 38.3313 23.7812 42.4219 23.7812C46.5125 23.7812 49.8125 27.0813 49.8125 31.1719Z" fill="#1ABCFE"/>
</g>
<defs>
<filter id="filter0_d_11_1654" x="0" y="0" width="68" height="69.3334" filterUnits="userSpaceOnUse" color-interpolation-filters="sRGB">
<feFlood flood-opacity="0" result="BackgroundImageFix"/>
<feColorMatrix in="SourceAlpha" type="matrix" values="0 0 0 0 0 0 0 0 0 0 0 0 0 0 0 0 0 0 127 0" result="hardAlpha"/>
<feOffset dy="4"/>
<feGaussianBlur stdDeviation="2"/>
<feComposite in2="hardAlpha" operator="out"/>
<feColorMatrix type="matrix" values="0 0 0 0 0 0 0 0 0 0 0 0 0 0 0 0 0 0 0.25 0"/>
<feBlend mode="normal" in2="BackgroundImageFix" result="effect1_dropShadow_11_1654"/>
<feBlend mode="normal" in="SourceGraphic" in2="effect1_dropShadow_11_1654" result="shape"/>
</filter>
<clipPath id="clip0_11_1654">
<rect width="44" height="44" fill="white" transform="translate(12 9)"/>
</clipPath>
</defs>
</svg>
