<svg width="27" height="27" viewBox="0 0 27 27" fill="none" xmlns="http://www.w3.org/2000/svg">
<path fill-rule="evenodd" clip-rule="evenodd" d="M13.5 1.07642C6.46587 1.07642 0.761909 6.77911 0.761909 13.8145C0.761909 19.4427 4.41176 24.2173 9.473 25.9019C10.1094 26.02 10.3431 25.6255 10.3431 25.2891C10.3431 24.9853 10.3313 23.9819 10.3258 22.9175C6.78207 23.6881 6.03429 21.4146 6.03429 21.4146C5.45485 19.9422 4.61996 19.5507 4.61996 19.5507C3.46402 18.7602 4.70707 18.7766 4.70707 18.7766C5.98599 18.8663 6.65972 20.0893 6.65972 20.0893C7.79583 22.0362 9.63964 21.4734 10.3665 21.1482C10.4809 20.3249 10.811 19.7627 11.1753 19.4446C8.34596 19.123 5.37153 18.0305 5.37153 13.1496C5.37153 11.7589 5.86934 10.6226 6.68419 9.73034C6.55172 9.40971 6.11571 8.11413 6.80738 6.35956C6.80738 6.35956 7.87683 6.01721 10.3111 7.66526C11.3273 7.38281 12.4173 7.24085 13.5 7.236C14.5821 7.24085 15.6727 7.38239 16.6909 7.66484C19.1221 6.01678 20.1903 6.35913 20.1903 6.35913C20.8837 8.1135 20.4477 9.40929 20.3154 9.72992C21.1321 10.6222 21.6264 11.7585 21.6264 13.1492C21.6264 18.0417 18.6465 19.1187 15.81 19.4343C16.2671 19.8296 16.6742 20.605 16.6742 21.7932C16.6742 23.4976 16.6594 24.8693 16.6594 25.2889C16.6594 25.6279 16.8889 26.0251 17.5344 25.9C22.5927 24.2137 26.2383 19.4406 26.2383 13.8145C26.2381 6.77953 20.5348 1.07663 13.5 1.07663V1.07642Z" fill="white"/>
<path d="M5.58647 19.3653C5.55842 19.4286 5.45886 19.4476 5.36815 19.4043C5.27534 19.363 5.22366 19.2767 5.25361 19.2132C5.28104 19.1478 5.38081 19.1299 5.47299 19.1735C5.5658 19.2151 5.61854 19.3022 5.58626 19.3655L5.58647 19.3653ZM6.10243 19.9409C6.04189 19.9973 5.92313 19.9711 5.84255 19.8819C5.75902 19.7933 5.74341 19.6745 5.80522 19.6174C5.86807 19.5612 5.98325 19.5878 6.06678 19.6764C6.14989 19.7663 6.16634 19.884 6.10264 19.9411L6.10243 19.9409ZM6.60488 20.6744C6.52683 20.7288 6.399 20.6779 6.32011 20.5647C6.24207 20.4512 6.24207 20.3151 6.32222 20.2609C6.4009 20.2065 6.52683 20.2557 6.60699 20.3679C6.68461 20.4828 6.68461 20.6189 6.60488 20.6742V20.6744ZM7.29275 21.3833C7.22314 21.4603 7.07422 21.4396 6.96537 21.3348C6.85421 21.2321 6.8232 21.0859 6.89302 21.0091C6.9639 20.9319 7.11345 20.9534 7.22293 21.0576C7.33409 21.1602 7.36763 21.3065 7.29317 21.3831L7.29275 21.3833ZM8.24197 21.7949C8.21096 21.8946 8.06794 21.94 7.92345 21.8974C7.77938 21.8537 7.68509 21.7371 7.71462 21.6362C7.74415 21.5356 7.88822 21.4886 8.03356 21.5339C8.17763 21.5774 8.27192 21.6934 8.24197 21.7949ZM9.28463 21.871C9.28821 21.9761 9.16587 22.063 9.01463 22.0651C8.86212 22.0687 8.73872 21.9834 8.73725 21.8801C8.73725 21.774 8.85706 21.6881 9.00935 21.6852C9.1606 21.6824 9.28484 21.7668 9.28484 21.8708L9.28463 21.871ZM10.2545 21.7061C10.2727 21.8084 10.1674 21.9136 10.017 21.9417C9.86935 21.9691 9.73224 21.9054 9.71325 21.8039C9.69511 21.6989 9.80227 21.5936 9.94993 21.5664C10.1005 21.5405 10.2355 21.6023 10.2545 21.7063V21.7061Z" fill="white"/>
</svg>
