<svg width="62" height="62" viewBox="0 0 62 62" fill="none" xmlns="http://www.w3.org/2000/svg">
<rect width="62" height="62" rx="20" fill="#7A2700"/>
<path fill-rule="evenodd" clip-rule="evenodd" d="M30.5 12.6345C19.8185 12.6345 11.157 21.2942 11.157 31.9775C11.157 40.5241 16.6993 47.7744 24.3849 50.3324C25.3513 50.5118 25.7062 49.9128 25.7062 49.4019C25.7062 48.9406 25.6883 47.4169 25.6799 45.8006C20.2987 46.9707 19.1632 43.5184 19.1632 43.5184C18.2833 41.2826 17.0155 40.6881 17.0155 40.6881C15.2602 39.4876 17.1478 39.5126 17.1478 39.5126C19.0898 39.6487 20.1129 41.5059 20.1129 41.5059C21.8381 44.4624 24.638 43.6078 25.7418 43.1138C25.9154 41.8637 26.4167 41.01 26.9698 40.527C22.6735 40.0385 18.1568 38.3796 18.1568 30.9679C18.1568 28.8561 18.9127 27.1306 20.1501 25.7757C19.9489 25.2888 19.2868 23.3214 20.3371 20.6571C20.3371 20.6571 21.9611 20.1372 25.6575 22.6398C27.2008 22.2109 28.8558 21.9953 30.5 21.988C32.1432 21.9953 33.7992 22.2103 35.3454 22.6392C39.0373 20.1366 40.6594 20.6564 40.6594 20.6564C41.7122 23.3205 41.0501 25.2881 40.8493 25.775C42.0896 27.1299 42.84 28.8555 42.84 30.9673C42.84 38.3966 38.315 40.0321 34.0077 40.5113C34.7019 41.1116 35.3201 42.289 35.3201 44.0934C35.3201 46.6815 35.2976 48.7645 35.2976 49.4016C35.2976 49.9163 35.6461 50.5195 36.6263 50.3295C44.3074 47.7689 49.8434 40.5209 49.8434 31.9775C49.843 21.2948 41.1824 12.6348 30.5 12.6348V12.6345Z" fill="white"/>
<path d="M18.4832 40.4065C18.4406 40.5026 18.2894 40.5315 18.1516 40.4658C18.0107 40.403 17.9322 40.272 17.9777 40.1756C18.0193 40.0763 18.1709 40.0491 18.3108 40.1154C18.4518 40.1785 18.5318 40.3108 18.4828 40.4069L18.4832 40.4065ZM19.2666 41.2807C19.1747 41.3662 18.9944 41.3265 18.872 41.191C18.7452 41.0564 18.7215 40.8761 18.8153 40.7893C18.9108 40.7041 19.0857 40.7445 19.2125 40.879C19.3387 41.0155 19.3637 41.1942 19.267 41.281L19.2666 41.2807ZM20.0296 42.3944C19.9111 42.477 19.717 42.3998 19.5972 42.2278C19.4787 42.0555 19.4787 41.8489 19.6004 41.7666C19.7199 41.6839 19.9111 41.7586 20.0328 41.929C20.1507 42.1036 20.1507 42.3102 20.0296 42.3941V42.3944ZM21.0742 43.471C20.9685 43.5879 20.7423 43.5565 20.577 43.3973C20.4082 43.2413 20.3612 43.0193 20.4672 42.9027C20.5748 42.7855 20.8019 42.8182 20.9681 42.9764C21.137 43.1321 21.1879 43.3544 21.0748 43.4706L21.0742 43.471ZM22.5156 44.0959C22.4685 44.2474 22.2513 44.3163 22.0319 44.2516C21.8131 44.1853 21.67 44.0081 21.7148 43.855C21.7596 43.7022 21.9784 43.6308 22.1991 43.6997C22.4179 43.7657 22.5611 43.9418 22.5156 44.0959ZM24.0989 44.2115C24.1043 44.371 23.9185 44.503 23.6889 44.5062C23.4573 44.5117 23.2699 44.3823 23.2677 44.2253C23.2677 44.0642 23.4496 43.9338 23.6809 43.9293C23.9105 43.9252 24.0992 44.0533 24.0992 44.2112L24.0989 44.2115ZM25.5717 43.961C25.5992 44.1164 25.4394 44.2762 25.211 44.3188C24.9868 44.3605 24.7786 44.2637 24.7498 44.1097C24.7222 43.9502 24.8849 43.7903 25.1091 43.749C25.3379 43.7096 25.5429 43.8034 25.5717 43.9614V43.961Z" fill="white"/>
</svg>
