<svg width="68" height="68" viewBox="0 0 68 68" fill="none" xmlns="http://www.w3.org/2000/svg">
<g filter="url(#filter0_d_11_901)">
<rect x="4" y="0.469238" width="60" height="60" rx="15" fill="#FD7E14"/>
<path d="M15.9499 14.9687L19.2352 51.4983L33.9776 55.4316L48.7611 51.5726L52.0501 14.9687H15.9499ZM45.2166 23.285L45.0106 25.6551L44.92 26.7499H27.6263L28.0395 31.6249H44.5089L44.3988 32.5313L43.3364 44.2755L43.2584 44.9621L34 47.454V47.452L33.989 47.4569L24.7359 45.0535L24.1078 38.1249H28.6448L28.9661 41.5618L33.9975 42.837L34 42.7419V42.7468L39.0424 41.6707L39.5689 36.0937H23.9059L22.7952 23.5665L22.6867 22.2812H45.3246L45.2166 23.285V23.285ZM19.3571 4.66089H21.641V6.91801H23.7308V4.66089H26.0151V11.4948H23.7308V9.20642H21.6415V11.4948H19.3571V4.66089ZM29.0185 6.92736H27.0076V4.66089H33.3146V6.92736H31.3029V11.4948H29.0185V6.92736V6.92736ZM34.3156 4.66089H36.6971L38.1624 7.06223L39.6261 4.66089H42.0088V11.4948H39.7334V8.10751L38.1624 10.5373H38.1226L36.5504 8.10751V11.4948H34.3152V4.66089H34.3156ZM43.1459 4.66089H45.4306V9.23608H48.6429V11.4952H43.1459V4.66089V4.66089Z" fill="white"/>
</g>
<defs>
<filter id="filter0_d_11_901" x="0.707692" y="0.469238" width="66.5846" height="66.5846" filterUnits="userSpaceOnUse" color-interpolation-filters="sRGB">
<feFlood flood-opacity="0" result="BackgroundImageFix"/>
<feColorMatrix in="SourceAlpha" type="matrix" values="0 0 0 0 0 0 0 0 0 0 0 0 0 0 0 0 0 0 127 0" result="hardAlpha"/>
<feOffset dy="3.29231"/>
<feGaussianBlur stdDeviation="1.64615"/>
<feComposite in2="hardAlpha" operator="out"/>
<feColorMatrix type="matrix" values="0 0 0 0 0 0 0 0 0 0 0 0 0 0 0 0 0 0 0.25 0"/>
<feBlend mode="normal" in2="BackgroundImageFix" result="effect1_dropShadow_11_901"/>
<feBlend mode="normal" in="SourceGraphic" in2="effect1_dropShadow_11_901" result="shape"/>
</filter>
</defs>
</svg>
