<svg width="68" height="68" viewBox="0 0 68 68" fill="none" xmlns="http://www.w3.org/2000/svg">
<g filter="url(#filter0_d_11_1662)">
<g clip-path="url(#clip0_11_1662)">
<rect x="15" y="11" width="39" height="38" fill="#F8A829"/>
<path fill-rule="evenodd" clip-rule="evenodd" d="M26.4789 32.3438H33.6841C32.4438 28.125 31.2222 24.225 30.0203 20.2612C28.8541 24.2391 27.6709 28.125 26.4789 32.3438ZM62.1775 0.46875H5.34672C4.32203 0.46875 4.46875 0.691875 4.46875 1.68047V58.5839C4.46875 59.5716 4.32203 59.5312 5.27453 59.5312H62.2497C63.2017 59.5312 63.5313 59.5716 63.5313 58.5834V1.75266C63.5313 0.691875 63.2022 0.46875 62.1775 0.46875ZM40.2334 45C39.4661 45 38.6959 44.9377 37.9323 44.9925C37.3816 45.0338 37.1973 44.8022 37.0506 44.3241C36.3409 42.0127 35.5867 39.7022 34.8766 37.3912C34.7336 36.9262 34.5292 36.7566 34.0253 36.7627C31.4364 36.7927 28.8461 36.7898 26.2567 36.7594C25.7116 36.7528 25.4608 36.8981 25.3052 37.4391C24.6461 39.7378 23.9252 42.0178 23.2591 44.3142C23.1147 44.812 22.8953 44.9859 22.3666 44.9723C20.8113 44.9334 19.2536 44.9573 17.5506 44.9573C18.0002 43.53 18.408 42.21 18.8298 40.8956C21.4145 32.8331 24.0081 24.7706 26.5741 16.703C26.7531 16.1414 27.002 15.9684 27.5786 15.9811C29.4002 16.0214 31.2231 15.9914 33.0456 15.9811C33.3864 15.9787 33.6189 15.9989 33.7436 16.3861C36.7928 25.8155 39.8528 35.303 42.91 44.7314C42.9231 44.7741 42.9147 45 42.9217 45H40.2334V45ZM49.9375 45H44.3125V23.9062H49.9375V45ZM46.9609 21.0605C45.243 21.0581 44.013 19.8755 44.0013 18.2152C43.99 16.5595 45.2702 15.3281 47.0041 15.3262C48.7516 15.3244 49.983 16.5155 49.9966 18.2189C50.0088 19.8806 48.7464 21.0633 46.9609 21.0605V21.0605Z" fill="#3C240C"/>
</g>
</g>
<defs>
<filter id="filter0_d_11_1662" x="0" y="0" width="68" height="68" filterUnits="userSpaceOnUse" color-interpolation-filters="sRGB">
<feFlood flood-opacity="0" result="BackgroundImageFix"/>
<feColorMatrix in="SourceAlpha" type="matrix" values="0 0 0 0 0 0 0 0 0 0 0 0 0 0 0 0 0 0 127 0" result="hardAlpha"/>
<feOffset dy="4"/>
<feGaussianBlur stdDeviation="2"/>
<feComposite in2="hardAlpha" operator="out"/>
<feColorMatrix type="matrix" values="0 0 0 0 0 0 0 0 0 0 0 0 0 0 0 0 0 0 0.25 0"/>
<feBlend mode="normal" in2="BackgroundImageFix" result="effect1_dropShadow_11_1662"/>
<feBlend mode="normal" in="SourceGraphic" in2="effect1_dropShadow_11_1662" result="shape"/>
</filter>
<clipPath id="clip0_11_1662">
<rect x="4" width="60" height="60" rx="15" fill="white"/>
</clipPath>
</defs>
</svg>
