<svg width="68" height="68" viewBox="0 0 68 68" fill="none" xmlns="http://www.w3.org/2000/svg">
<g filter="url(#filter0_d_11_915)">
<rect x="4" width="60" height="60" rx="15" fill="white"/>
<path d="M29.361 31.5507C29.361 31.5507 28.0269 32.327 30.3121 32.5895C33.0803 32.9055 34.4952 32.86 37.5453 32.2835C37.5453 32.2835 38.3493 32.7861 39.4689 33.2216C32.6293 36.1519 23.9892 33.0518 29.361 31.5507ZM28.5246 27.7258C28.5246 27.7258 27.0279 28.8345 29.3147 29.0709C32.2722 29.376 34.6069 29.4012 38.6499 28.6228C38.6499 28.6228 39.2077 29.19 40.0864 29.4991C31.8184 31.9179 22.6092 29.6896 28.5246 27.7258V27.7258Z" fill="#0074BD"/>
<path d="M35.5702 21.2376C37.2565 23.1786 35.1282 24.9239 35.1282 24.9239C35.1282 24.9239 39.4072 22.7151 37.4422 19.9481C35.6063 17.3688 34.1995 16.0879 41.8179 11.6696C41.8183 11.6696 29.8587 14.6555 35.5702 21.2376Z" fill="#EA2D2E"/>
<path d="M44.6161 34.3798C44.6161 34.3798 45.6041 35.1943 43.5282 35.824C39.5811 37.0196 27.0978 37.3804 23.6305 35.8715C22.3849 35.3292 24.7221 34.5768 25.457 34.4188C26.2236 34.2526 26.6615 34.2831 26.6615 34.2831C25.2754 33.3069 17.7017 36.2002 22.8147 37.0302C36.7588 39.2901 48.2326 36.0121 44.6161 34.3798V34.3798ZM30.0033 23.7629C30.0033 23.7629 23.654 25.2713 27.7551 25.8197C29.4874 26.0513 32.9381 25.998 36.1547 25.7283C38.7828 25.5077 41.4202 25.036 41.4202 25.036C41.4202 25.036 40.4943 25.4334 39.8236 25.8908C33.3748 27.5869 20.9196 26.7967 24.5055 25.0629C27.5374 23.5959 30.0033 23.7629 30.0033 23.7629V23.7629ZM41.3937 30.1288C47.9486 26.7236 44.9176 23.4509 42.8022 23.8916C42.2851 23.9997 42.0527 24.0931 42.0527 24.0931C42.0527 24.0931 42.2457 23.7909 42.6125 23.6613C46.7977 22.1907 50.0156 28.0004 41.2629 30.3014C41.2629 30.3014 41.3633 30.2104 41.3937 30.1288Z" fill="#0074BD"/>
<path d="M37.4426 4.53345C37.4426 4.53345 41.0724 8.16492 33.9992 13.748C28.3271 18.2277 32.7057 20.7814 33.9967 23.7003C30.6858 20.7128 28.2572 18.0827 29.8863 15.6354C32.2787 12.0434 38.9067 10.301 37.4426 4.53345V4.53345Z" fill="#EA2D2E"/>
<path d="M30.648 39.3596C36.9384 39.7618 46.6011 39.1358 46.8298 36.1592C46.8298 36.1592 46.3902 37.2873 41.6302 38.1827C36.2604 39.1935 29.6365 39.0761 25.7088 38.4277C25.7088 38.4277 26.5132 39.0939 30.648 39.3596V39.3596Z" fill="#0074BD"/>
<path d="M46.5393 44.6985H46.3476V44.5913H46.8635V44.6985H46.6726V45.2335H46.5389L46.5393 44.6985V44.6985ZM47.5692 44.7253H47.5667L47.3766 45.2335H47.2888L47.0999 44.7253H47.0979V45.2335H46.9712V44.5913H47.1568L47.3319 45.0458L47.5074 44.5913H47.6919V45.2335H47.5692V44.7253V44.7253ZM29.617 50.7338C29.0238 51.2481 28.3966 51.5373 27.8331 51.5373C27.0312 51.5373 26.5961 51.0555 26.5961 50.284C26.5961 49.4492 27.0617 48.8378 28.9272 48.8378H29.6166V50.7338H29.617ZM31.2546 52.5814V46.8626C31.2546 45.4005 30.4205 44.4361 28.412 44.4361C27.2396 44.4361 26.2118 44.7261 25.3761 45.095L25.6166 46.1078C26.2748 45.8661 27.1258 45.6418 27.9611 45.6418C29.1189 45.6418 29.6166 46.1078 29.6166 47.0722V47.7949H29.0381C26.2264 47.7949 24.9577 48.8857 24.9577 50.5262C24.9577 51.9395 25.7938 52.7427 27.368 52.7427C28.3795 52.7427 29.1356 52.325 29.8412 51.7136L29.9696 52.5818H31.2546V52.5814V52.5814ZM36.7194 52.5814H34.6772L32.219 44.5827H34.0029L35.5287 49.4979L35.8679 50.9747C36.6382 48.8386 37.1842 46.67 37.4572 44.5831H39.1923C38.7279 47.216 37.8911 50.1073 36.7194 52.5814V52.5814ZM44.5552 50.7338C43.96 51.2481 43.3324 51.5373 42.7709 51.5373C41.9682 51.5373 41.5335 51.0555 41.5335 50.284C41.5335 49.4492 42.0003 48.8378 43.8638 48.8378H44.5548V50.7338H44.5552ZM46.1936 52.5814V46.8626C46.1936 45.4005 45.3571 44.4361 43.3503 44.4361C42.1766 44.4361 41.1492 44.7261 40.3135 45.095L40.5544 46.1078C41.2126 45.8661 42.0649 45.6418 42.9001 45.6418C44.0563 45.6418 44.5552 46.1078 44.5552 47.0722V47.7949H43.9767C41.1642 47.7949 39.8959 48.8857 39.8959 50.5262C39.8959 51.9395 40.7312 52.7427 42.305 52.7427C43.3169 52.7427 44.0718 52.325 44.7794 51.7136L44.9086 52.5818H46.1936V52.5814V52.5814ZM23.1621 53.9407C22.6961 54.6228 21.9413 55.1627 21.1158 55.467L20.3078 54.5143C20.9362 54.1918 21.4745 53.6713 21.7252 53.1863C21.9413 52.7544 22.0311 52.1991 22.0311 50.8703V41.7369H23.7714V50.7447C23.7714 52.5221 23.6301 53.2407 23.1621 53.9407Z" fill="#EA2D2E"/>
</g>
<defs>
<filter id="filter0_d_11_915" x="0" y="0" width="68" height="68" filterUnits="userSpaceOnUse" color-interpolation-filters="sRGB">
<feFlood flood-opacity="0" result="BackgroundImageFix"/>
<feColorMatrix in="SourceAlpha" type="matrix" values="0 0 0 0 0 0 0 0 0 0 0 0 0 0 0 0 0 0 127 0" result="hardAlpha"/>
<feOffset dy="4"/>
<feGaussianBlur stdDeviation="2"/>
<feComposite in2="hardAlpha" operator="out"/>
<feColorMatrix type="matrix" values="0 0 0 0 0 0 0 0 0 0 0 0 0 0 0 0 0 0 0.25 0"/>
<feBlend mode="normal" in2="BackgroundImageFix" result="effect1_dropShadow_11_915"/>
<feBlend mode="normal" in="SourceGraphic" in2="effect1_dropShadow_11_915" result="shape"/>
</filter>
</defs>
</svg>
