<svg width="62" height="62" viewBox="0 0 62 62" fill="none" xmlns="http://www.w3.org/2000/svg">
<rect width="62" height="62" rx="20" fill="#7A2700"/>
<g clip-path="url(#clip0_11_1750)">
<path d="M45.7188 13.8202H17.2812C16.636 13.8136 16.0145 14.0633 15.5532 14.5144C15.0918 14.9655 14.8282 15.5812 14.8203 16.2264V44.7788C14.8297 45.423 15.0939 46.0374 15.5551 46.4873C16.0163 46.9372 16.637 47.1861 17.2812 47.1796H45.7188C46.364 47.1847 46.9851 46.9342 47.4462 46.4828C47.9073 46.0314 48.171 45.4158 48.1797 44.7706V16.2182C48.1682 15.5749 47.9032 14.9621 47.4424 14.5131C46.9816 14.0641 46.3622 13.815 45.7188 13.8202V13.8202ZM24.7105 42.2577H19.7586V26.3245H24.7105V42.2577ZM22.2496 24.1534C21.6816 24.1539 21.1263 23.986 20.6538 23.6709C20.1813 23.3557 19.8128 22.9075 19.5951 22.3829C19.3774 21.8583 19.3201 21.281 19.4306 20.7239C19.5411 20.1667 19.8143 19.6549 20.2157 19.2531C20.6172 18.8513 21.1287 18.5776 21.6857 18.4666C22.2428 18.3556 22.8202 18.4123 23.345 18.6295C23.8697 18.8467 24.3183 19.2147 24.6339 19.6869C24.9495 20.1591 25.118 20.7143 25.118 21.2823C25.1173 21.6598 25.0421 22.0335 24.8968 22.3819C24.7515 22.7303 24.5389 23.0466 24.2712 23.3128C24.0036 23.579 23.686 23.7897 23.3368 23.933C22.9875 24.0763 22.6134 24.1494 22.2359 24.1479L22.2496 24.1534ZM43.2578 42.2577H38.3059V34.5057C38.3059 32.66 38.273 30.2839 35.7328 30.2839C33.1926 30.2839 32.7605 32.2964 32.7605 34.3854V42.2577H27.8168V26.3245H32.5637V28.512H32.6293C33.291 27.2596 34.9043 25.9389 37.3133 25.9389C42.3281 25.928 43.2578 29.2284 43.2578 33.5077V42.2577Z" fill="white"/>
</g>
<defs>
<clipPath id="clip0_11_1750">
<rect width="35" height="35" fill="white" transform="translate(14 13)"/>
</clipPath>
</defs>
</svg>
