<svg width="162" height="173" viewBox="0 0 162 173" fill="none" xmlns="http://www.w3.org/2000/svg">
<g clip-path="url(#clip0_11_1678)">
<path d="M13.947 125.801C13.1901 124.9 12.4793 124.042 11.7552 123.2C11.1696 122.542 10.8567 121.687 10.8799 120.808C10.9095 117.908 10.9128 115.008 10.9161 112.111C10.9273 111.741 10.9052 111.37 10.8502 111.004C10.6199 109.719 10.35 109.506 9.06984 109.506C7.42437 109.506 5.77889 109.506 4.13342 109.506C3.97357 109.528 3.81119 109.494 3.67342 109.41C3.53565 109.327 3.43084 109.199 3.3765 109.047C2.33986 106.865 1.26372 104.699 0.240235 102.51C0.0658602 102.118 -0.0184243 101.692 -0.00646813 101.264C0.00548809 100.835 0.113383 100.415 0.309345 100.033C1.29663 97.8835 2.34973 95.7437 3.39296 93.6106C6.1409 87.9909 8.87896 82.368 11.6664 76.768C11.9691 76.2299 12.128 75.6235 12.128 75.0067C12.128 74.39 11.9691 73.7836 11.6664 73.2455C10.6429 71.2041 9.80043 69.0709 8.86909 66.9803C8.6698 66.5545 8.56271 66.0918 8.55477 65.6221C8.54683 65.1524 8.63823 64.6863 8.82302 64.254C10.1229 61.0658 11.413 57.8742 12.7294 54.6925C15.1625 48.8139 17.6055 42.9398 20.0583 37.07C20.1805 36.7921 20.2419 36.4915 20.2385 36.1881C20.2351 35.8847 20.1669 35.5855 20.0386 35.3104C18.8209 32.3984 17.6142 29.4778 16.4185 26.5483C15.4773 24.2186 15.5135 24.1956 17.3433 22.4557C18.1002 21.7348 18.7913 20.9418 19.5054 20.1619C19.8773 19.7622 20.2294 19.3427 20.6046 18.9495C21.6972 17.8092 22.0691 17.7928 23.313 18.7693C25.9063 20.8042 28.5127 22.8259 31.0961 24.8772C31.5042 25.2049 31.7543 25.2049 32.1361 24.8379C33.0444 23.9597 33.9757 23.1012 34.94 22.2853C35.0904 22.166 35.2076 22.0103 35.2802 21.833C35.3528 21.6557 35.3784 21.4627 35.3546 21.2727C35.2065 18.0943 35.0255 14.9158 34.9465 11.7341C34.8774 9.42069 34.4266 10.0007 36.6183 8.9259C38.0532 8.21812 39.6295 7.78887 41.1598 7.28752C41.2863 7.26372 41.4166 7.27065 41.5398 7.30773C41.663 7.34481 41.7754 7.41094 41.8674 7.50051C43.2858 9.35188 44.6614 11.236 46.06 13.1038C46.6722 13.923 47.304 14.7422 47.9129 15.5253C49.8874 14.6832 51.8422 13.8673 53.774 13.0055C53.955 12.9236 54.0735 12.5795 54.1031 12.3501C54.5671 9.62713 55.0114 6.89759 55.4689 4.15821C55.4883 3.91902 55.5614 3.68722 55.6828 3.47992C55.8196 3.26828 56.0328 3.11699 56.2784 3.05722C58.4867 2.95564 60.6982 2.89338 62.9064 2.82785C63.3013 2.82785 63.6962 2.84751 64.0878 2.82785C65.2693 2.75576 65.9736 3.32264 66.3619 4.39742C67.1418 6.55025 67.9185 8.69981 68.7478 10.833C69.406 12.5107 69.4356 12.4976 71.2588 12.4976C71.9828 12.4976 72.7068 12.5271 73.4275 12.4976C73.5524 12.4789 73.6723 12.4357 73.7802 12.3705C73.8881 12.3052 73.9819 12.2192 74.0561 12.1175C74.5498 11.3474 74.9677 10.5282 75.4581 9.7582C76.8106 7.61847 78.1928 5.49841 79.5421 3.36196C79.6267 3.18957 79.7613 3.04646 79.9285 2.95122C80.0958 2.85598 80.2879 2.81299 80.48 2.82785C82.5138 2.85406 84.5487 2.85406 86.5847 2.82785C86.6748 2.81127 86.7673 2.81253 86.857 2.83155C86.9466 2.85058 87.0316 2.88699 87.1071 2.93872C87.1825 2.99045 87.247 3.05648 87.2969 3.13303C87.3468 3.20959 87.381 3.29517 87.3976 3.3849C87.6214 4.20409 87.8847 5.02328 88.1019 5.83264C88.76 8.31315 89.4182 10.7969 90.0534 13.2873C90.3496 14.4866 90.3068 14.4964 91.5935 14.5226C91.9424 14.5226 92.2945 14.5226 92.6434 14.5456C93.5696 14.6131 94.4861 14.3207 95.2004 13.7296C97.9549 11.6161 100.746 9.54521 103.487 7.40876C104.168 6.87793 104.78 6.73047 105.587 7.05487C107.232 7.71022 108.93 8.34264 110.615 8.95212C110.715 8.97423 110.809 9.01624 110.892 9.0756C110.974 9.13495 111.044 9.21042 111.097 9.29743C111.149 9.38443 111.184 9.48117 111.198 9.58178C111.212 9.68238 111.205 9.78476 111.178 9.88272C110.849 12.6712 110.52 15.4532 110.191 18.2483C110.082 19.1789 109.947 20.1095 109.901 21.0434C109.896 21.3808 110.012 21.7089 110.23 21.9674C110.948 22.7571 111.741 23.478 112.481 24.2612C112.61 24.4216 112.796 24.5267 113.001 24.5547C113.205 24.5828 113.413 24.5316 113.58 24.4119C115.989 23.1733 118.425 21.9838 120.82 20.7157C123.048 19.5328 123.088 19.5066 125.056 21.0434C126.451 22.1313 127.847 23.2224 129.252 24.2972C129.339 24.3479 129.416 24.4154 129.477 24.4958C129.537 24.5763 129.582 24.668 129.606 24.7657C129.631 24.8634 129.636 24.965 129.621 25.0646C129.606 25.1642 129.571 25.2598 129.518 25.3458C128.488 27.8656 127.626 30.4608 126.468 32.9184C125.859 34.2094 125.852 35.1892 126.665 36.3C127.111 36.9469 127.502 37.6297 127.833 38.3414C128.067 38.8165 128.33 38.9542 128.857 38.8067C131.065 38.1808 133.287 37.6041 135.495 36.9815C136.884 36.5916 138.259 36.1525 139.641 35.7429C140.504 35.4873 140.8 35.5988 141.168 36.3983C142.277 38.787 143.37 41.1856 144.476 43.5777C144.611 43.8416 144.666 44.1395 144.634 44.4342C144.601 44.729 144.482 45.0077 144.291 45.2357C144.107 45.4782 143.916 45.7174 143.709 45.9402C141.626 48.2045 139.546 50.4753 137.433 52.71C137.262 52.8562 137.145 53.0557 137.101 53.2763C137.057 53.4969 137.09 53.7257 137.193 53.9257C137.634 54.9939 138.039 56.0752 138.509 57.1336C138.574 57.2219 138.657 57.2952 138.753 57.3484C138.849 57.4016 138.956 57.4334 139.065 57.4417C141.553 57.635 144.041 57.7988 146.529 57.9856C147.747 58.0773 148.968 58.1757 150.186 58.3133C151.173 58.4181 151.351 58.641 151.351 59.624C151.351 61.6097 151.351 63.5921 151.351 65.5746C151.374 65.7646 151.336 65.957 151.244 66.1246C151.151 66.2923 151.008 66.4266 150.834 66.5085C147.994 68.1468 145.177 69.8245 142.34 71.4596C142.105 71.5613 141.908 71.7348 141.778 71.9552C141.649 72.1755 141.593 72.4312 141.619 72.6852C141.669 74.2744 141.649 75.8669 141.619 77.4561C141.619 77.8952 141.711 78.0525 142.195 78.1737C144.828 78.8291 147.438 79.5401 150.057 80.2283C150.524 80.3528 150.696 80.6051 150.696 81.113C150.696 82.9644 150.742 84.8157 150.771 86.6835C150.771 86.9424 150.771 87.2045 150.771 87.4666C150.725 89.1738 150.551 89.3901 148.889 89.7309C146.129 90.2945 143.366 90.8537 140.599 91.4086C140.24 91.4807 139.865 91.4938 139.447 91.5397C139.296 93.5385 139.135 95.5307 139.006 97.523C139.024 97.621 139.062 97.7141 139.119 97.796C139.176 97.878 139.25 97.9469 139.335 97.9981C141.639 99.5218 143.943 101.023 146.21 102.566C146.307 102.67 146.38 102.794 146.421 102.93C146.463 103.066 146.473 103.209 146.45 103.349C146.19 104.738 145.878 106.118 145.575 107.501C145.407 108.268 145.246 109.031 145.048 109.794C144.831 110.679 144.594 110.866 143.709 110.856C140.747 110.82 137.153 110.594 134.201 110.528C134.201 110.528 130.315 112.599 129.476 113.17C130.196 114.526 131.223 116.06 131.934 117.429C132.888 119.268 133.816 121.119 134.767 122.957C134.958 123.255 135.03 123.612 134.969 123.96C134.908 124.307 134.719 124.619 134.438 124.835C133.329 125.818 132.21 126.801 131.101 127.784C130.601 128.226 130.114 128.688 129.518 129.239C129.704 129.279 129.892 129.307 130.081 129.324C134.57 129.353 139.056 129.409 143.544 129.393C145.137 129.393 146.727 129.199 148.323 129.114C148.693 129.076 149.067 129.093 149.432 129.167C150.363 129.399 150.729 129.606 150.725 130.612C150.702 137.195 150.768 143.778 150.725 150.358C150.725 152.491 150.396 154.617 150.38 156.751C150.35 159.493 150.492 162.239 150.515 164.985C150.53 167.121 150.509 169.256 150.452 171.388C150.419 172.489 150.347 172.558 149.267 172.584C145.976 172.662 142.705 172.741 139.424 172.751C135.593 172.751 131.763 172.662 127.932 172.679C117.316 172.721 106.702 172.803 96.0857 172.862C85.0764 172.924 74.0671 172.98 63.0578 173.033C62.1199 173.033 62.0211 173.033 61.9421 172.089C61.8259 170.639 61.7885 169.185 61.8303 167.731C61.8862 165.316 62.0442 162.904 62.1133 160.493C62.1593 158.854 62.1133 157.232 62.1133 155.509H61.2148C48.5645 155.576 35.913 155.647 23.2604 155.722C23.0391 155.734 22.8183 155.689 22.6198 155.591C22.4213 155.492 22.2519 155.344 22.1283 155.161C19.9991 152.563 17.8237 150 15.6649 147.425C15.6236 147.375 15.5796 147.326 15.5333 147.281C14.1576 146.003 13.8878 144.659 14.8751 142.929C15.7274 141.451 16.2408 139.777 16.8858 138.181C16.9217 138.093 16.9388 137.999 16.9359 137.904C16.9331 137.809 16.9104 137.716 16.8694 137.631C16.7419 137.427 16.5831 137.245 16.3988 137.09C15.0166 135.779 13.6212 134.505 12.2423 133.204C12.1236 133.06 12.0442 132.889 12.0119 132.706C12.0036 132.554 12.0036 132.402 12.0119 132.25C11.835 131.16 11.901 130.044 12.2053 128.981C12.5095 127.919 13.0446 126.936 13.7726 126.103C13.8393 126.008 13.8976 125.907 13.947 125.801V125.801ZM67.6388 76.2404C67.6388 76.2077 47.1197 74.7135 40.9821 73.9926C38.0203 73.6485 35.0584 73.3176 32.1229 72.9801C31.0566 72.8588 29.9871 72.7704 28.9307 72.5967C28.2429 72.4853 28.0717 72.151 28.2297 71.4891C28.2506 71.3967 28.2781 71.3058 28.312 71.2172C29.1874 68.8251 30.1088 66.4429 30.9447 64.0312C31.1751 63.3562 31.4845 63.2219 32.0834 63.4381C32.2282 63.4906 32.3763 63.5233 32.5244 63.5725C39.951 65.9623 47.3797 68.3489 54.8107 70.7322C55.7552 71.0369 66.2994 73.6813 67.2504 73.9664C67.0036 73.7075 47.8997 67.3801 43.4174 65.5746C40.3174 64.3261 37.1942 63.1268 34.0876 61.8915C33.5545 61.6785 33.0509 61.3934 32.4191 61.0854L37.4016 53.349C47.6825 59.6338 57.2229 66.0694 67.2965 72.4427C66.8555 72.0364 53.1751 61.0625 46.5307 55.8C38.6719 49.5742 30.8822 43.6465 23.0169 37.4239C22.7358 37.2225 22.4411 37.0408 22.1349 36.88C21.9572 37.3879 21.8914 37.6336 21.7268 38.0334C18.2187 46.4153 14.7336 54.8039 11.1662 63.1629C10.5837 64.5293 10.4586 65.722 11.0872 67.095C12.1765 69.4707 13.1407 71.902 14.1807 74.3039C14.3105 74.578 14.3733 74.8788 14.3642 75.1818C14.355 75.4847 14.2741 75.7812 14.128 76.0471C12.9433 78.4523 11.798 80.8738 10.61 83.2789C8.07597 88.4202 5.55511 93.568 2.96843 98.6797C1.79356 101.003 1.73432 100.973 2.83679 103.365C3.42916 104.65 4.02811 105.931 4.57112 107.239C4.73237 107.619 4.90021 107.773 5.31158 107.769C7.14793 107.747 8.98756 107.769 10.8272 107.753C10.9847 107.742 11.1417 107.779 11.2779 107.859C11.414 107.938 11.523 108.057 11.5907 108.199C12.7458 110.004 13.098 111.974 13.0025 114.074C12.9104 116.04 12.8873 118.006 12.8215 119.956C12.7791 120.902 13.0963 121.83 13.7101 122.554C14.3321 123.311 14.9047 124.111 15.5069 124.887C15.7454 125.159 15.8784 125.506 15.882 125.867C15.8856 126.227 15.7596 126.577 15.5267 126.853C15.372 127.066 15.2371 127.292 15.0659 127.489C14.026 128.688 13.5126 130.055 13.7792 131.647C13.8241 131.93 13.9511 132.193 14.1445 132.404C15.576 133.81 17.0273 135.199 18.4819 136.582C18.7284 136.785 18.8983 137.066 18.9641 137.378C19.0298 137.689 18.9875 138.014 18.8439 138.299C18.0344 140.301 17.2742 142.32 16.4416 144.309C16.3375 144.492 16.2984 144.705 16.3307 144.913C16.3629 145.121 16.4646 145.312 16.6193 145.456C17.5605 146.547 18.4655 147.667 19.3738 148.785C20.6902 150.423 22.0263 152.078 23.3657 153.7C23.4951 153.832 23.6707 153.91 23.8561 153.916C24.5142 153.932 25.1724 153.916 25.8306 153.896C36.207 153.792 46.58 153.674 56.9564 153.595C58.9309 153.595 60.9351 153.746 62.9261 153.788C63.5284 153.788 63.7357 154.087 63.7653 154.617C63.8147 155.443 63.9134 156.256 63.9101 157.095C63.9101 161.151 63.8674 165.205 63.8443 169.258C63.8443 169.913 63.8443 170.569 63.8443 171.319L148.678 170.696V131.048H147.905C142.389 131.048 136.873 131.048 131.355 131.048C130.591 131.048 129.828 131.139 129.051 131.156C128.377 131.21 127.699 131.188 127.03 131.09C125.931 130.851 125.737 130.065 126.563 129.314C128.34 127.699 130.15 126.119 131.937 124.517C132.332 124.166 132.688 123.773 133.076 123.387C132.23 122.715 131.503 122.122 130.772 121.545C116.511 110.518 102.251 99.4858 87.99 88.4497C84.7253 85.9233 81.4805 83.3707 78.2192 80.8377C77.8341 80.5396 77.3997 80.3069 76.9916 80.0448L76.8337 80.2184C77.2023 80.6739 77.5807 81.1261 77.9296 81.5947C79.2196 83.3248 80.5162 85.0484 81.8787 86.7228C86.7625 92.7127 91.7219 98.6437 96.6386 104.611C102.885 112.193 109.122 119.78 115.351 127.371C117.289 129.734 119.218 132.106 121.169 134.455C121.343 134.633 121.579 134.736 121.827 134.744C127.628 134.744 133.429 134.731 139.23 134.704C140.316 134.704 140.579 134.881 140.592 135.956C140.615 137.595 140.54 139.233 140.592 140.871C140.626 141.83 140.294 142.767 139.664 143.493C135.294 149.083 130.966 154.699 126.626 160.312C126.431 160.558 126.257 160.82 126.004 161.174H126.872L139.217 161.076C140.204 161.076 140.461 161.286 140.5 162.285C140.536 163.157 140.55 164.028 140.55 164.906C140.55 166.407 140.273 166.663 138.776 166.61C138.624 166.61 138.47 166.587 138.318 166.584C136.916 166.555 135.514 166.446 134.119 166.512C129.459 166.735 124.802 166.872 120.139 166.686C119.993 166.7 119.845 166.668 119.718 166.594C119.591 166.519 119.491 166.407 119.432 166.273C118.945 165.372 118.309 164.09 117.813 163.193C113.747 155.883 109.676 148.576 105.6 141.271C105.527 141.143 105.363 140.976 105.238 140.973C104.251 140.947 103.237 140.973 102.154 140.973V166.659C101.805 166.682 101.684 166.692 101.41 166.692C99.9789 166.692 98.5473 166.738 97.1322 166.869C96.0824 166.964 95.8158 166.869 95.5789 165.935C92.9363 155.423 90.2574 144.898 87.6247 134.373C83.4945 117.829 74.6485 82.1484 74.5662 81.8372C74.4774 81.9256 75.5173 91.7887 75.7378 95.131C75.9045 97.6759 76.0921 100.219 76.3005 102.759C76.6121 106.672 76.9412 110.582 77.2878 114.49C77.482 116.718 77.7453 118.943 77.946 121.171C78.104 122.993 78.1895 124.822 78.3343 126.647C78.5614 129.576 78.9925 132.506 79.0156 135.438C79.1011 145.223 79.0485 155.011 79.0485 164.798C79.0485 165.146 79.0485 165.496 79.0287 165.844C78.9728 166.718 78.67 167.036 77.8111 167.046C76.0405 167.066 74.27 167.046 72.4337 167.046C72.323 166.463 72.2527 165.873 72.2231 165.28C72.2757 163.517 72.4238 161.757 72.46 159.998C72.72 146.792 72.2527 133.584 72.7002 120.375C72.8977 114.585 72.8516 108.785 72.9471 102.992C73.0491 96.6285 73.421 81.4931 73.3782 81.7225C73.2202 82.6039 71.9203 90.7172 71.4299 93.4434C69.8075 102.468 68.2937 111.512 66.7305 120.549C66.589 121.368 66.4211 121.532 65.5819 121.299C63.5514 120.772 61.5341 120.195 59.5134 119.635C58.9704 119.484 58.4373 119.307 57.7725 119.123C61.3004 108.343 71.6899 81.2801 71.6274 81.2539C71.1403 82.2369 54.3006 117.587 53.9057 118.38L45.2406 114.641C52.8098 104.591 70.7487 80.7394 70.6006 80.8902C70.5151 80.9688 64.9139 87.7484 63.66 89.1116C59.1426 94.0376 54.6176 98.9528 50.0849 103.857C47.6627 106.478 45.2702 109.159 42.8448 111.797C42.1866 112.508 42.1142 112.537 41.4231 111.872C39.567 110.086 37.7669 108.245 35.9338 106.436C35.5652 106.072 35.6705 105.78 36.0227 105.528C36.5788 105.105 37.1416 104.693 37.6978 104.27C44.1568 99.3744 50.618 94.4789 57.0814 89.5834C59.7635 87.5518 69.2382 80.5396 69.5311 80.3298C69.4949 80.284 65.9505 82.8071 65.911 82.7579L33.2385 102.818L29.6481 95.6553C39.9126 91.3234 58.5459 83.6525 68.7544 79.3435C68.7314 79.278 46.9651 86.9194 40.9953 88.9182C37.2853 90.1569 33.5665 91.3693 29.839 92.5554C28.6411 92.9356 28.753 93.024 28.4634 91.7231C28.0619 89.9373 27.7328 88.1384 27.3346 86.3525C27.2227 85.8577 27.3346 85.6087 27.8282 85.5137C28.9406 85.2941 30.0562 85.068 31.1718 84.8583C37.8557 83.6066 68.2114 78.0525 68.0008 78.0787C64.4597 78.4981 37.7471 82.0108 33.1628 82.5384C31.4713 82.7383 29.7929 83.0561 28.108 83.315C27.2095 83.4559 26.9989 83.2593 27.0581 82.3516C27.1075 81.5488 27.1503 80.7427 27.2095 79.9399C27.3148 78.5276 27.4267 77.1153 27.5386 75.7063C27.5715 75.3131 27.7361 75.1427 28.1771 75.1755C29.6382 75.2902 31.0994 75.3918 32.5606 75.4475C41.5679 75.7784 67.2735 76.2404 67.6388 76.2404ZM75.5732 81.1195L75.31 81.2179C80.152 99.1308 84.9941 117.044 89.8362 134.957H107.541C107.35 134.447 107.13 133.948 106.883 133.463C96.4576 116.017 86.0209 98.5694 75.5732 81.1195ZM121.623 139.19C121.953 139.19 122.196 139.19 122.456 139.19L130.66 139.007C132.148 138.977 133.622 138.941 135.123 138.951C135.46 138.95 135.787 139.066 136.048 139.279C136.357 139.577 136.176 141.409 135.88 141.776C135.093 142.739 134.303 143.696 133.51 144.656C129.393 149.656 125.26 154.65 121.169 159.677C120.75 160.172 120.483 160.777 120.399 161.42C120.287 162.845 120.363 164.284 120.363 165.821C126.767 165.69 133.198 166.03 139.654 165.565V162.072H138.835C134.416 162.072 129.996 162.072 125.573 162.072C125.303 162.036 125.04 161.965 124.789 161.859C124.856 161.598 124.942 161.341 125.046 161.092C125.168 160.884 125.31 160.689 125.471 160.509C127.09 158.425 128.71 156.34 130.331 154.254C133.219 150.54 136.106 146.815 138.993 143.08C139.486 142.494 139.743 141.747 139.714 140.983C139.654 139.374 139.714 137.758 139.694 136.146C139.694 135.937 139.674 135.727 139.661 135.471L121.623 135.691V139.19ZM70.9429 67.7045L71.2094 67.6029C65.7684 49.928 60.3219 32.2335 54.8699 14.5193L48.4328 17.144L70.9429 67.7045ZM139.872 37.7876C121.005 49.2563 98.0208 62.8844 79.2097 74.317C98.9159 64.952 122.802 53.385 142.547 44.0135L139.872 37.7876ZM17.7349 24.8313L67.7572 70.6274L67.9679 70.4176L21.8946 20.542C20.5322 21.951 19.173 23.3699 17.7349 24.8313ZM72.4073 67.4292H72.5489C72.5489 67.2097 72.5489 66.9869 72.5094 66.7739C71.1732 56.4848 69.836 46.1958 68.4977 35.9068C67.1813 25.7488 65.8704 15.5908 64.565 5.43287C64.5058 4.97085 64.3478 4.84306 63.9068 4.84633C62.031 4.86599 60.1585 4.84633 58.2826 4.84633C58.1115 4.84633 57.9535 4.88238 57.687 4.90859C62.6014 25.7794 67.5082 46.6163 72.4073 67.4194V67.4292ZM78.7687 77.0793C78.7951 77.1317 81.5759 77.1678 81.599 77.2202C100.927 77.6363 120.291 77.9804 139.638 78.3966V71.9413C138.473 72.0069 137.364 72.0396 136.258 72.1379C132.513 72.4656 128.771 72.8359 125.023 73.1636C122.104 73.4192 119.178 73.6256 116.259 73.8746C112.708 74.1826 109.161 74.53 105.606 74.8282C100.312 75.2651 95.015 75.702 89.7144 76.1389C87.2133 76.3387 84.6826 76.5976 82.1815 76.7942C81.961 76.804 78.9827 76.9744 78.7687 77.0695V77.0793ZM107.894 135.658L90.1028 135.937V139.836C90.2805 139.836 90.4318 139.836 90.5734 139.836C92.1234 139.754 93.6701 139.636 95.2202 139.593C96.3062 139.564 96.474 139.78 96.474 140.848C96.474 148.955 96.474 157.061 96.474 165.165V165.981H101.305C101.305 157.34 101.025 148.745 101.437 140.095H107.89L107.894 135.658ZM137.088 97.677C137.292 95.4685 137.489 93.4172 137.647 91.3529C137.647 91.2218 137.357 90.9728 137.167 90.9302C134.883 90.419 132.595 89.9264 130.305 89.4524C115.428 86.3744 100.543 83.3019 85.6501 80.2348C84.6859 80.0349 78.2093 78.5964 78.1994 78.6456C96.2799 84.5929 118.889 91.6838 137.088 97.677ZM148.909 81.9486L83.3267 78.0132C83.3267 78.0722 78.5121 77.6527 78.5055 77.7117C100.354 80.7689 127.011 84.298 148.909 87.3618V81.9486ZM77.3898 68.16L77.5643 68.2222C86.3708 48.7189 95.1763 29.2145 103.981 9.70905C103.744 9.64679 103.678 9.66318 103.625 9.70905C100.914 11.7603 98.1886 13.7984 95.4999 15.8857C95.097 16.2301 94.7965 16.6777 94.6311 17.1801C91.9194 25.1524 89.2504 33.1412 86.5452 41.1201C83.6097 49.7686 80.6621 58.4138 77.7025 67.0557C77.5774 67.4096 77.4951 67.7864 77.3898 68.16ZM77.9394 78.9733C77.9131 79.0355 124.385 100.272 143.278 109.08C143.492 108.186 143.696 107.373 143.883 106.554C144.071 105.735 144.252 104.863 144.456 103.932C125.283 96.8414 97.1191 86.1002 77.9394 78.9864V78.9733ZM124.134 35.4611C110.049 47.3918 93.4891 61.0199 79.4006 72.967C94.46 62.7566 111.981 50.8455 127.077 40.6122L124.134 35.4611ZM69.2579 68.7956L69.2974 68.7727L37.1153 12.4648C37.0494 15.5319 37.0791 18.5399 37.1877 21.5447C37.2532 22.062 37.4554 22.5527 37.7735 22.9668C46.8565 36.2618 55.9493 49.5479 65.0521 62.8254C66.4277 64.834 67.879 66.8001 69.2579 68.7956ZM68.8038 69.2249L68.8531 69.1626L36.7829 23.1733C35.7693 24.0514 34.7227 24.9624 33.6696 25.8635C32.6165 26.7646 32.5836 26.7908 33.515 27.8656C36.6611 31.5006 39.8051 35.1367 42.9468 38.7739C47.1658 43.6738 51.3793 48.5769 55.5873 53.4833C59.1547 57.6514 62.7089 61.8282 66.25 66.0137C67.1353 67.0557 67.9547 68.1534 68.8038 69.2249ZM79.3973 71.5711C79.4566 71.63 85.8245 64.8897 85.8838 64.9487L127.445 25.1295C126.129 24.1465 124.947 23.2978 123.776 22.4294C123.721 22.3757 123.656 22.3343 123.584 22.3082C123.512 22.282 123.435 22.2717 123.359 22.278C123.283 22.2842 123.209 22.3068 123.142 22.3443C123.075 22.3817 123.018 22.4332 122.973 22.495C122.374 23.1503 121.765 23.8057 121.176 24.4807C116.73 29.5498 112.29 34.6387 107.834 39.6914C101.217 47.1821 94.5905 54.6619 87.9538 62.1307C87.1804 62.9925 80.1444 70.6896 79.3973 71.5711ZM135.264 53.8438C116.707 61.0756 97.7476 68.0748 79.2887 75.3131C98.442 69.7754 117.99 64.1426 137.209 58.5852C136.581 57.055 135.936 55.4822 135.264 53.8438ZM78.104 165.994V135.904H74.1318C73.1215 135.904 73.0952 135.93 73.0952 136.929V165.293C73.0952 165.522 73.1182 165.752 73.1314 165.994H78.104ZM108.203 22.6457C98.4848 38.443 88.6646 54.9317 79.0254 70.5848C89.9909 56.167 101.137 40.9137 111.935 26.7122L108.203 22.6457ZM149.692 60.4268C128.959 65.0863 99.3931 71.3974 78.8675 76.0111C78.9563 76.1258 88.0821 74.4415 88.1315 74.4317C93.318 73.642 98.5078 72.8654 103.691 72.0495C116.216 70.0703 128.742 68.0813 141.267 66.0825C143.729 65.6936 146.19 65.307 148.652 64.9225C149.264 64.8275 149.689 64.5752 149.689 63.8903C149.692 62.7828 149.692 61.6752 149.692 60.4268ZM80.3616 6.12755L80.1904 6.05546C79.9502 6.38314 79.6935 6.71081 79.4763 7.03849C78.7556 8.17225 78.0382 9.30601 77.3438 10.4562C74.9842 14.3719 75.1816 12.9629 75.0796 17.688C74.9249 24.8968 74.8986 32.1057 74.7966 39.3146C74.6715 48.3759 74.5366 57.4351 74.3918 66.4921C74.3918 66.7346 74.3918 66.9738 74.3918 67.2162H74.5201C76.4552 46.8523 78.4023 26.4894 80.3616 6.12755ZM77.8209 68.7661L78.0612 68.9005L109.098 10.3546C107.716 9.8991 106.442 9.4764 105.169 9.06353C104.724 8.91935 104.603 9.24375 104.461 9.5616C99.268 21.1395 94.0694 32.7174 88.8654 44.2953C85.6995 51.336 82.5182 58.3723 79.3216 65.4042C78.8148 66.5314 78.3212 67.652 77.8209 68.7661ZM76.0175 67.6783L76.1459 67.7045C76.5605 66.0923 76.973 64.4823 77.3833 62.8745C81.1656 47.9784 84.9436 33.0833 88.7173 18.1893C88.8504 17.7656 88.8831 17.317 88.8127 16.8786C87.9538 13.4118 87.0784 9.93515 86.1997 6.46833H86.0944C82.7266 26.8695 79.3677 47.2728 76.0175 67.6783V67.6783ZM69.0868 14.5619C70.5809 32.1494 72.0728 49.7041 73.5625 67.2261H73.829C74.1055 49.6757 74.383 32.1057 74.6616 14.5161H69.6166C69.485 14.5226 69.3534 14.5226 69.0868 14.5619ZM77.2714 79.6581C92.5611 91.4839 116.157 109.264 131.444 121.089L131.598 120.942C131.503 120.736 131.411 120.523 131.305 120.319C130.318 118.383 129.262 116.469 128.344 114.497C127.852 113.407 127.051 112.485 126.04 111.842C118.199 106.715 110.368 101.57 102.549 96.4056C97.3165 92.9683 77.3141 79.5959 77.2714 79.6581V79.6581ZM88.3191 70.7814C88.3388 70.8272 79.19 74.6905 79.2097 74.7364C79.5388 74.6184 89.0233 70.6929 89.3425 70.5684L133.319 53.7782C134.204 53.4555 134.989 52.9089 135.597 52.1923C137.354 50.1345 139.161 48.116 140.945 46.0811C141.06 45.95 141.152 45.8026 141.274 45.6617L141.172 45.5503L88.3191 70.7814ZM80.7499 4.64317C79.1044 25.5489 76.8765 46.34 75.3495 67.1999L75.5634 67.2261C78.885 46.3902 82.2089 25.5282 85.5349 4.6399L80.7499 4.64317ZM79.3973 71.2106C79.45 71.2598 108.394 37.7581 121.521 22.8653L121.39 22.7145C121.133 22.8128 120.87 22.8915 120.623 23.0094C118.54 24.022 116.457 25.0345 114.37 26.0634C113.403 26.5356 112.562 27.2282 111.915 28.0851C107.514 33.8916 103.103 39.6925 98.6822 45.488C93.4003 52.4184 79.654 70.8272 79.3973 71.2106ZM88.3191 75.0182C88.3191 75.0575 78.7753 76.3289 78.7753 76.3781C79.4335 76.342 89.8329 75.5392 90.4911 75.4802C94.5192 75.1132 98.6559 74.5464 102.687 74.2023C106.719 73.8582 110.799 73.6027 114.864 73.252C122.104 72.6295 129.324 71.9413 136.558 71.3286C138.18 71.191 139.743 71.073 141.185 70.1457C143.294 68.7858 145.496 67.5701 147.658 66.2889C147.849 66.1742 148.033 66.0497 148.224 65.9318L148.165 65.804C128.304 68.9595 108.163 71.8365 88.3191 75.0051V75.0182ZM18.6991 26.8957C18.8308 27.302 18.8867 27.5183 18.969 27.7214L21.6906 34.5109C21.8738 35.0282 22.0937 35.5319 22.3488 36.0182C23.2505 37.5943 42.3709 52.2283 51.0985 59.0079C56.364 63.0952 61.6109 67.1911 66.8391 71.2958C67.069 71.4556 67.3086 71.6011 67.5565 71.7316L67.6848 71.5448L18.6991 26.8957ZM37.1449 10.7478C48.2485 30.736 59.9083 50.7669 69.61 68.2222C60.9088 50.3671 50.3811 29.8644 40.4128 9.40431L37.1449 10.7478ZM132.306 109.768C116.697 101.327 77.8407 79.3927 77.8012 79.455C78.387 79.8678 81.3653 81.6111 81.961 82.0043C92.7267 89.0821 103.494 96.1555 114.262 103.225C116.96 104.994 125.78 110.198 128.505 111.905C128.719 112.039 132.006 110.03 132.306 109.768ZM83.2016 68.6547C83.2411 68.6973 79.3611 72.1543 79.4006 72.1969C79.5619 72.0724 83.6525 68.5368 83.8105 68.4057C89.8175 63.3682 95.8213 58.3286 101.822 53.2867C104.511 51.0225 107.16 48.6993 109.835 46.4317C114.355 42.5761 118.874 38.7215 123.394 34.868C123.64 34.6597 123.836 34.3987 123.967 34.1046C124.852 31.9484 125.711 29.7825 126.573 27.6166C126.632 27.4691 126.665 27.3085 126.711 27.1545L126.576 27.0562L83.2016 68.6547ZM89.6881 16.5149L76.6494 68.0059L76.9785 68.101C82.6828 50.9307 88.3871 33.7354 94.0914 16.5149H89.6881ZM77.9394 79.2223C77.9394 79.2223 105.498 94.148 114.028 98.7911C119.915 102.002 125.819 105.178 131.704 108.392C132.514 108.871 133.443 109.115 134.386 109.097C135.564 109.051 136.745 109.08 137.927 109.08H140.717L140.796 108.831C123.213 100.665 77.9394 79.2223 77.9394 79.2223ZM78.5483 69.392L78.7556 69.5133C78.9728 69.2085 79.2064 68.9136 79.4138 68.5958C81.7547 64.8166 84.0902 61.0363 86.4202 57.2549C93.397 45.9785 100.372 34.7031 107.344 23.4289C107.644 22.9564 107.843 22.4278 107.93 21.8757C108.315 18.9004 108.637 15.9218 108.98 12.9432C108.988 12.8166 108.988 12.6897 108.98 12.5631L108.789 12.5074L78.5483 69.392ZM90.2837 79.9891C90.2837 80.048 78.3047 78.4359 78.3014 78.4949C78.2981 78.5538 90.2245 80.7886 90.264 80.7886C98.883 82.6203 107.624 83.872 116.262 85.6874C123.127 87.1357 129.998 88.5665 136.874 89.9799C137.232 90.069 137.604 90.0868 137.97 90.0323C140.908 89.4622 143.844 88.8593 146.776 88.2629C146.967 88.2236 147.151 88.1646 147.339 88.1122L147.309 87.9745L90.2837 79.9891ZM71.8281 67.4194L72.0223 67.3735L57.144 6.12099C56.7556 8.29676 56.3607 10.3316 56.0316 12.3862C55.8918 13.101 55.9075 13.8373 56.0777 14.5456C59.6977 26.5866 63.3441 38.621 67.0168 50.6489C67.8296 53.3326 68.6623 56.013 69.4159 58.7065C70.2551 61.6031 71.0219 64.5129 71.8281 67.4194ZM148.428 59.6699C148.339 59.6469 137.798 59.293 135.886 59.8534C129.215 61.8194 122.536 63.7472 115.851 65.6368C108.265 67.793 79.2064 75.4671 79.2229 75.5327C96.9808 71.5186 130.456 63.7265 148.415 59.6699H148.428ZM97.5633 61.767C93.9005 64.2803 82.9647 71.0206 79.3019 73.5306C96.0627 63.3005 120.11 48.8434 136.857 38.6134C135.824 38.751 134.853 39.0656 133.862 39.2687C130.47 39.9617 127.255 41.3389 124.417 43.3155C115.489 49.525 106.505 55.6263 97.5502 61.767H97.5633ZM70.2123 67.9339H70.2584C70.2206 67.7964 70.1733 67.6617 70.1169 67.5308C65.3746 57.9135 61.2938 48.021 56.9202 38.2497C54.0439 31.8174 51.2466 25.3556 48.3966 18.9168C48.1959 18.458 41.3112 9.2372 41.2717 9.26669C50.437 27.8558 61.0635 49.3448 70.2123 67.9339ZM68.1884 69.8114L68.343 69.7066C68.2048 69.4772 65.4108 66.0071 64.1471 64.5031C55.0553 53.6963 45.9635 42.883 36.8717 32.0631C35.4994 30.4247 34.1139 28.8847 32.2052 27.7607C30.2964 26.6368 28.7168 25.195 26.9857 23.8909C26.4526 23.4911 22.928 20.5191 22.3784 20.1455C22.2994 20.2275 53.8267 54.2173 68.1884 69.8213V69.8114ZM72.9635 67.3768L73.0919 67.4096C72.9898 66.2955 72.8911 65.1846 72.7858 64.0738C72.6246 62.3863 72.4567 60.702 72.2856 59.0178C72.075 57.0091 71.7985 55.0037 71.6274 52.9885C71.2424 48.0963 70.9692 43.1943 70.548 38.3054C69.9655 31.2931 69.3139 24.2841 68.682 17.2751C68.6676 16.7223 68.5914 16.1728 68.4549 15.6367C67.7671 13.556 67.0267 11.4916 66.2994 9.41086C66.0427 8.6867 65.7662 7.96909 65.4997 7.24492L65.3187 7.28752L72.9635 67.3768ZM101.328 86.8506C101.302 86.9194 78.0842 78.7472 78.0612 78.816C91.6758 83.8655 128.488 97.1658 142.103 102.206C142.083 102.108 142.044 102.016 141.987 101.935C141.93 101.853 141.858 101.783 141.774 101.73C139.167 100.092 136.696 98.2996 133.635 97.3428C123.684 94.243 102.174 87.116 101.328 86.8604V86.8506ZM120.705 138.181C121.182 136.395 120.998 134.904 119.567 133.757C119.374 133.579 119.201 133.382 119.05 133.168L104.945 116.043C102.447 113.012 76.7119 80.5822 76.5144 80.3921C76.4782 80.4347 112.721 127.623 120.705 138.191V138.181ZM119.389 164.395L119.583 164.297C119.787 162.56 119.583 160.994 118.612 159.382C115.009 153.513 111.56 147.546 108.061 141.612C107.614 140.848 107.403 140.75 106.386 141.107L119.389 164.395ZM144.528 80.9229L144.565 80.7591L143.959 80.5723C142.62 80.1726 141.284 79.7662 139.944 79.3796C139.58 79.2506 139.201 79.1712 138.815 79.1437C136.212 79.1076 133.609 79.1437 131.006 79.0781C123.99 78.9077 116.973 78.7013 109.944 78.5145C109.496 78.5145 109.049 78.5145 108.601 78.5145C108.601 78.5473 78.6832 77.3971 78.6799 77.4299C90.6523 78.2 132.539 80.1562 144.515 80.9262L144.528 80.9229ZM89.7342 139.659C89.7111 138.676 89.6025 136.503 89.5795 135.52C88.8423 133.315 74.7702 81.2572 74.7702 81.2572C77.0673 90.1438 79.371 99.0303 81.6812 107.917C84.3337 118.104 87.0718 129.478 89.7342 139.659Z" fill="white"/>
<path d="M162 11.3802C162 17.7241 157.087 22.7146 150.863 22.7146C144.384 22.7146 139.22 17.7044 139.279 11.4196C139.332 5.84906 143.811 -0.268652 151.538 0.0197032C157.34 0.229416 162.329 6.09155 162 11.3802ZM141.056 11.4294C141.043 12.6733 141.276 13.9076 141.743 15.0614C142.21 16.2152 142.901 17.2659 143.777 18.1531C144.653 19.0403 145.696 19.7465 146.846 20.2313C147.997 20.716 149.232 20.9698 150.482 20.9779C156.175 21.027 160.355 16.9212 160.355 11.2459C160.378 6.16691 155.922 1.6843 150.831 1.66136C145.404 1.63187 141.086 5.93754 141.04 11.4294H141.056Z" fill="white"/>
<path d="M145.943 5.32479C147.355 5.32479 148.731 5.32479 150.103 5.32479C150.979 5.32479 151.857 5.28875 152.736 5.37067C153.509 5.42016 154.24 5.73718 154.802 6.2668C155.365 6.79642 155.723 7.50529 155.816 8.2706C155.954 9.05164 155.809 9.85599 155.408 10.541C155.007 11.226 154.375 11.7474 153.625 12.0127L153.374 12.111L157.047 17.4324C155.816 17.4324 154.822 17.4324 153.832 17.4324C153.69 17.4324 153.526 17.226 153.427 17.0818C152.71 16.0136 151.979 14.9552 151.304 13.8608C150.682 12.8482 149.847 12.4026 148.573 12.6844V17.3964H145.94L145.943 5.32479ZM148.576 10.1449C149.827 10.1449 151.025 10.181 152.219 10.1449C152.825 10.1187 152.96 9.62718 152.943 9.09635C152.927 8.56551 152.98 7.8479 152.186 7.8053C150.995 7.74304 149.797 7.78892 148.566 7.78892L148.576 10.1449Z" fill="white"/>
</g>
<defs>
<clipPath id="clip0_11_1678">
<rect width="162" height="173" fill="white"/>
</clipPath>
</defs>
</svg>
