<svg width="219" height="112" viewBox="0 0 219 112" fill="none" xmlns="http://www.w3.org/2000/svg">
<g clip-path="url(#clip0_11_1686)">
<path d="M34.1914 69.3628L1.10644 67.8405C0.426661 67.8116 -0.13018 67.6995 0.0216857 66.7919C0.882256 61.6972 1.75367 56.6025 2.57447 51.4969C2.72272 50.5893 3.1277 50.0867 4.02081 49.9819C6.81224 49.6601 9.59282 49.2044 12.3915 49.0562C23.7561 48.4596 35.1207 48.7959 46.4817 49.2189C51.9344 49.4214 57.3834 49.8155 62.8325 50.1265C64.4199 50.2169 64.8646 50.6616 64.8718 52.2273C64.8718 54.8777 64.8284 57.5281 64.8718 60.1822C64.9586 64.3259 63.0639 66.0326 59.289 67.2547C53.7893 69.0374 48.0799 69.1494 42.3741 69.2398C39.6441 69.2832 36.9141 69.2398 34.1842 69.2398L34.1914 69.3628Z" fill="white"/>
<path d="M48.4161 45.5236C40.9313 44.9848 34.271 44.4786 27.607 44.0375C25.2097 43.8784 22.8015 43.8675 20.397 43.8097C18.5674 43.7699 18.2853 43.4879 18.401 41.6148C18.6107 38.1979 18.7626 34.7773 19.0772 31.3712C19.2941 28.8075 21.2142 27.4371 23.2282 26.3126C25.3829 25.1508 27.7878 24.5304 30.2357 24.5047C42.2885 24.0611 54.3413 23.5634 66.3941 23.0113C67.5403 22.9607 68.3611 23.2174 68.6359 24.3637C70.1582 30.7058 70.1618 36.8745 66.4664 42.5984C66.2429 42.9852 65.9286 43.3118 65.5506 43.5499C65.1726 43.788 64.7423 43.9306 64.2969 43.9651C58.7321 44.4605 53.1891 45.0391 48.4161 45.5236Z" fill="white"/>
<path d="M144.652 17.1752C144.626 17.5368 144.576 17.8586 144.576 18.2021C144.576 26.9645 144.576 35.7257 144.576 44.4856C144.576 46.2213 144.525 46.2719 142.797 46.2719C141.369 46.2719 139.94 46.2104 138.519 46.29C137.333 46.355 136.986 45.9067 136.99 44.7424C137.03 35.164 137.012 25.5784 137.015 16.0109C137.015 12.5071 137.051 9.00338 136.99 5.49963C136.968 4.34979 137.294 3.86888 138.498 3.93397C139.962 4.01713 141.434 3.99182 142.898 3.93397C143.283 3.90335 143.668 3.98599 144.006 4.1717C144.344 4.35741 144.62 4.63804 144.8 4.97895C150.585 13.6859 156.388 22.3796 162.207 31.06C162.673 31.7615 163.154 32.4594 163.809 33.4284C163.887 33.0634 163.943 32.6939 163.975 32.322C163.975 23.4414 163.969 14.5585 163.957 5.67319C163.957 4.0316 164.025 3.97013 165.692 3.96651C167.2 3.96651 168.708 4.00267 170.212 3.96651C171.207 3.93397 171.579 4.28832 171.568 5.3116C171.525 9.75186 171.55 14.1957 171.55 18.636V44.6701C171.55 46.2646 171.525 46.2863 169.89 46.29C168.545 46.29 167.2 46.2466 165.855 46.29C165.436 46.3339 165.013 46.2547 164.638 46.062C164.263 45.8694 163.952 45.5716 163.743 45.2052C157.751 36.1993 151.736 27.2079 145.7 18.231C145.444 17.8477 145.176 17.4753 144.912 17.0956L144.652 17.1752Z" fill="white"/>
<path d="M91.4591 25.4301C91.3651 20.5307 92.0232 16.1447 94.2361 12.1058C97.1288 6.80494 101.688 3.9882 107.647 3.36627C113.606 2.74435 119.218 3.44944 123.882 7.64743C127.046 10.5112 128.738 14.221 129.538 18.3576C130.425 22.8454 130.419 27.4641 129.52 31.9495C127.82 40.4214 122.259 46.7347 111.842 47.0167C107.365 47.1397 103.066 46.5286 99.2838 43.8782C95.9464 41.546 93.8601 38.3098 92.6813 34.477C91.7495 31.5557 91.3359 28.494 91.4591 25.4301V25.4301ZM122.628 25.1517C122.389 23.2209 122.223 21.2792 121.905 19.3664C121.051 14.3837 118.155 10.2183 112.062 9.73377C107.235 9.34688 102.849 10.9704 100.77 15.7831C98.7414 20.4837 98.7704 25.3759 99.5622 30.2862C99.8559 32.0866 100.429 33.83 101.262 35.4533C103.113 39.0329 106.396 40.4287 110.251 40.5154C114.785 40.6095 118.643 39.3439 120.827 34.477C122.143 31.512 122.483 28.3734 122.628 25.1517Z" fill="white"/>
<path d="M179.982 25.0976C179.982 18.5891 179.982 12.0698 179.982 5.53955C179.982 4.0209 180.055 3.95581 181.577 3.95581C189.486 3.95581 197.392 3.95581 205.297 3.95581C206.935 3.95581 206.989 4.01728 206.989 5.69865C206.989 6.7147 206.989 7.73437 206.989 8.75403C206.989 10.2004 206.797 10.3775 205.358 10.3775C199.978 10.3775 194.599 10.3775 189.221 10.3775C187.478 10.3775 187.478 10.3775 187.478 12.1421C187.478 14.872 187.514 17.602 187.456 20.332C187.431 21.3155 187.792 21.612 188.729 21.612C193.701 21.583 198.673 21.612 203.644 21.612C205.297 21.612 205.38 21.6988 205.384 23.3223C205.384 24.407 205.34 25.5279 205.384 26.6235C205.427 27.7191 204.968 28.1241 203.872 28.1169C198.983 28.0807 194.109 28.1169 189.199 28.1169C187.463 28.1169 187.463 28.1169 187.463 29.8633C187.463 32.6765 187.514 35.4896 187.427 38.2991C187.387 39.5212 187.829 39.8141 188.971 39.8033C194.554 39.7599 200.137 39.8033 205.723 39.8033C207.448 39.8033 207.567 39.9407 207.531 41.7124C207.51 42.6887 207.531 43.6686 207.531 44.6485C207.531 46.2684 207.463 46.3263 205.77 46.3299H185.344C184.039 46.3299 182.73 46.2684 181.432 46.348C180.275 46.4167 179.961 45.9213 179.964 44.8402C179.997 38.2232 179.982 31.6604 179.982 25.0976Z" fill="white"/>
<path d="M51.4752 0C55.6695 0 59.8663 0 64.0655 0C65.8734 0 66.734 0.531529 67.1064 2.32137C67.5349 4.22113 67.7687 6.15958 67.8043 8.10672C67.8043 11.1983 67.5295 14.2862 67.3523 17.3741C67.3053 18.2564 66.8063 18.618 65.906 18.6614C57.5245 19.0663 49.1465 19.5292 40.765 19.9125C36.8418 20.0896 34.4807 17.1861 35.0954 13.2955C35.6956 9.52052 36.1801 5.70218 36.661 1.92724C36.8888 0.162713 36.9937 0.0180796 38.7618 0.0180796L51.4752 0Z" fill="white"/>
<path d="M172.092 70.1293C172.092 71.0043 172.092 71.8793 172.092 72.7544C172.092 75.647 172.092 78.5397 172.118 81.4324C172.118 82.4231 171.836 82.9438 170.736 82.951C169.637 82.9583 169.522 82.2568 169.525 81.4215C169.525 76.5365 169.525 71.6588 169.561 66.7629C169.561 66.2133 169.84 65.3383 170.223 65.1828C170.619 65.0072 171.066 64.9867 171.476 65.1254C171.885 65.264 172.228 65.5517 172.436 65.9313C173.882 68.1406 175.39 70.3101 176.869 72.4976C178.084 74.3687 179.398 76.1731 180.807 77.9033C180.836 77.4983 180.89 77.097 180.89 76.692C180.89 73.351 180.89 70.0136 180.846 66.6761C180.846 65.6492 181.049 65.0454 182.239 65.0562C183.49 65.0562 183.432 65.877 183.432 66.7231C183.432 71.525 183.453 76.3304 183.399 81.1359C183.399 81.7253 183.132 82.6582 182.73 82.8317C181.884 83.1933 181.045 82.8715 180.452 81.9711C178.059 78.3553 175.611 74.7395 173.181 71.1236C172.939 70.762 172.685 70.4004 172.436 70.0389L172.092 70.1293Z" fill="white"/>
<path d="M109.802 74.0416C109.802 76.7354 109.314 79.2521 107.271 81.1974C104.986 83.3669 102.155 83.4609 99.3634 82.7739C96.4996 82.0688 94.9556 79.9318 94.3301 77.0645C93.7314 74.5123 93.8898 71.8409 94.7857 69.3772C96.3007 65.2805 100.492 64.0836 104.259 65.0635C107.705 65.9566 109.202 68.5275 109.661 71.8504C109.763 72.5953 109.759 73.3185 109.802 74.0416ZM107.387 74.1537C107.134 72.805 106.975 71.5539 106.664 70.3462C106.15 68.4118 104.548 67.2439 102.408 67.092C99.9202 66.9329 98.2208 67.8152 97.3963 69.7496C96.3586 72.1795 96.4598 74.7142 97.0348 77.1874C97.5699 79.469 99.15 80.6008 101.421 80.7707C103.814 80.9479 105.601 80.1054 106.425 78.095C106.935 76.8692 107.083 75.4663 107.387 74.1682V74.1537Z" fill="white"/>
<path d="M94.6989 101.652C94.6989 99.2477 94.7315 96.8395 94.6989 94.4205C94.6772 93.3032 95.0171 92.7934 96.2393 92.8259C98.9258 92.8982 101.616 92.8657 104.306 92.844C105.127 92.844 105.753 92.9019 105.753 93.9758C105.753 94.9882 105.228 95.1979 104.357 95.1798C102.48 95.1437 100.604 95.2341 98.7306 95.1401C97.5554 95.0822 97.2119 95.5306 97.3023 96.6262C97.3638 97.5218 97.3638 98.4207 97.3023 99.3164C97.2589 100.155 97.5808 100.492 98.4341 100.473C100.242 100.437 102.021 100.473 103.814 100.452C104.668 100.434 105.098 100.694 105.102 101.623C105.105 102.553 104.686 102.816 103.825 102.798C102.017 102.759 100.238 102.798 98.4449 102.777C97.6061 102.777 97.2626 103.073 97.3023 103.923C97.3566 104.941 97.3566 105.961 97.3023 106.978C97.2409 108.02 97.6025 108.45 98.6981 108.425C100.69 108.356 102.675 108.425 104.69 108.403C105.434 108.403 106.092 108.49 106.092 109.488C106.092 110.486 105.514 110.619 104.726 110.616C101.833 110.616 98.9403 110.587 96.0476 110.616C95.0135 110.634 94.7025 110.182 94.7134 109.217C94.7495 106.685 94.7134 104.154 94.7134 101.623L94.6989 101.652Z" fill="white"/>
<path d="M116.922 98.7017V93.8094C116.922 92.9922 116.94 92.2546 118.104 92.251C119.269 92.2474 119.431 92.8802 119.428 93.8167C119.406 98.7848 119.428 103.749 119.402 108.718C119.402 109.394 119.731 110.406 118.712 110.525C118.206 110.58 117.627 109.914 116.871 109.441C116.389 109.801 115.882 110.126 115.353 110.413C112.283 111.892 108.924 110.384 108.092 106.819C107.68 104.96 107.738 103.027 108.262 101.197C109.278 97.7579 112.532 96.6009 115.79 98.1484L116.922 98.7017ZM117.07 104.368C116.915 103.048 117.041 101.931 116.622 101.085C116.043 99.913 114.713 99.5948 113.465 99.6201C112.911 99.6146 112.366 99.7711 111.899 100.07C111.432 100.37 111.063 100.799 110.836 101.305C110.055 102.896 110.113 104.559 110.475 106.197C110.753 107.391 111.393 108.461 112.832 108.696C114.271 108.931 115.642 108.573 116.358 107.325C116.893 106.407 116.893 105.188 117.07 104.368Z" fill="white"/>
<path d="M155.572 109.173C153.832 110.695 152.072 111.505 149.88 110.619C148.09 109.896 147.197 108.407 147.378 106.346C147.431 105.466 147.782 104.631 148.374 103.978C148.965 103.325 149.762 102.893 150.632 102.755C151.67 102.589 152.74 102.603 153.793 102.52C154.36 102.473 155.159 102.741 155.239 101.829C155.308 101.001 155.185 99.9925 154.18 99.8949C152.834 99.7683 151.464 99.9563 150.101 100.003C149.548 100.025 148.803 100.842 148.514 99.7321C148.264 98.7776 148.72 98.2496 149.714 97.9965C151.641 97.5048 153.532 97.2083 155.456 97.9965C156.743 98.5208 157.586 99.4429 157.625 100.821C157.741 103.789 157.738 106.761 157.723 109.734C157.691 109.916 157.614 110.087 157.499 110.232C157.384 110.378 157.235 110.492 157.065 110.565C156.677 110.573 156.301 110.429 156.016 110.164C155.818 109.972 155.76 109.593 155.572 109.173ZM153.402 104.263L153.337 104.433C152.853 104.465 152.368 104.476 151.891 104.53C150.35 104.708 149.721 105.543 149.906 107.105C150.061 108.334 150.961 109.018 152.39 108.714C153.196 108.498 153.947 108.112 154.592 107.582C155.481 106.91 155.521 105.807 155.156 104.924C154.986 104.53 154.01 104.473 153.402 104.263V104.263Z" fill="white"/>
<path d="M128.131 81.3747C126.884 82.7559 125.423 83.1826 123.741 83.0488C121.933 82.9114 120.353 81.6387 120.086 80.0151C119.724 77.8095 120.534 75.922 122.407 75.3145C123.687 74.8987 125.105 74.906 126.464 74.7179C127.046 74.6384 127.932 75.0072 127.939 73.9622C127.939 73.0329 127.694 72.0169 126.573 71.9663C125.296 71.912 124.005 72.1832 122.718 72.2519C122.226 72.2772 121.409 72.2881 121.29 72.0422C120.957 71.319 121.127 70.5669 122.038 70.2958C124.02 69.71 126.048 69.4243 128.041 70.1294C129.802 70.7513 130.434 72.2375 130.456 74.002C130.481 76.4825 130.507 78.9702 130.434 81.4506C130.434 81.9424 129.953 82.4161 129.693 82.897C129.303 82.5715 128.905 82.257 128.522 81.9207C128.376 81.7499 128.246 81.5673 128.131 81.3747V81.3747ZM126.175 76.4897C125.238 76.6452 124.526 76.6596 123.893 76.8874C122.642 77.3358 122.208 78.3338 122.581 79.6463C122.75 80.1558 123.11 80.58 123.585 80.8301C124.06 81.0801 124.614 81.1366 125.13 80.9878C125.858 80.7516 126.537 80.3839 127.133 79.903C127.551 79.5972 127.85 79.1553 127.978 78.6532C128.106 78.1511 128.055 77.6201 127.835 77.1514C127.643 76.7247 126.634 76.6596 126.175 76.4897Z" fill="white"/>
<path d="M192.761 77.1875C191.676 77.1875 190.562 77.2055 189.463 77.1875C188.639 77.1658 188.494 77.5707 188.678 78.2722C189.112 79.9355 190.298 80.9552 192.146 80.9588C193.231 80.9588 194.315 80.5972 195.4 80.4996C195.818 80.5199 196.23 80.599 196.626 80.7346C196.463 81.277 196.452 82.1592 196.112 82.3111C193.755 83.3778 191.274 83.5188 188.931 82.3581C186.921 81.3674 186.144 79.4654 186.115 77.2959C186.039 76.0038 186.161 74.7077 186.476 73.4523C187.301 70.7585 189.495 69.5146 192.312 69.7388C196.622 70.0787 197.374 73.4631 197.15 76.392C197.129 76.6812 196.528 77.1151 196.167 77.1477C195.039 77.2453 193.892 77.1838 192.753 77.1838L192.761 77.1875ZM191.654 75.2349C192.341 75.2349 193.032 75.1987 193.715 75.2349C194.738 75.3 194.879 74.7685 194.681 73.944C194.319 72.3856 193.372 71.7745 191.488 71.8758C190.041 71.9553 188.758 73.0328 188.664 74.4069C188.702 74.5862 188.785 74.7528 188.905 74.8913C189.025 75.0298 189.179 75.1356 189.351 75.1987C190.117 75.267 190.887 75.279 191.654 75.2349V75.2349Z" fill="white"/>
<path d="M152.531 77.2959C153.07 80.8394 154.187 81.2733 160.149 80.3549C160.815 81.5481 160.681 82.3508 159.466 82.5461C157.658 82.839 155.724 83.0885 153.945 82.7775C151.688 82.387 150.654 80.514 150.115 78.3409C149.392 75.3506 150.434 71.7347 152.675 70.5162C154.783 69.37 157.014 69.3302 159.05 70.6789C161.086 72.0276 161.22 74.273 161.053 76.4642C161.032 76.7246 160.395 77.1296 160.03 77.1404C157.998 77.2055 155.959 77.1657 153.919 77.1766C153.489 77.191 153.055 77.2489 152.531 77.2959ZM155.63 75.2204C156.32 75.2204 157.011 75.1842 157.698 75.2204C158.461 75.271 158.714 74.9564 158.652 74.2224C158.519 72.5845 157.336 71.7347 155.322 71.8757C153.894 71.9734 152.448 73.3872 152.585 74.6346C152.61 74.848 153.048 75.1517 153.308 75.177C154.082 75.2638 154.859 75.2132 155.63 75.2132V75.2204Z" fill="white"/>
<path d="M174.374 104.111C174.374 101.601 175.097 99.3813 177.484 98.1953C179.78 97.0491 182.228 97.0636 184.281 98.7051C186.813 100.716 186.975 103.493 186.346 106.472C185.471 110.637 180.286 112.362 176.706 109.755C175.17 108.634 174.37 106.624 174.374 104.111ZM180.463 108.699C182.065 108.699 183.211 108.041 183.66 106.779C184.28 105.124 184.28 103.3 183.66 101.645C183.139 100.264 181.985 99.6814 180.593 99.6417C179.259 99.6055 177.928 100.047 177.52 101.377C177.078 102.755 176.919 104.207 177.053 105.648C177.306 107.821 178.5 108.692 180.463 108.699Z" fill="white"/>
<path d="M191.354 99.291C191.716 99.0415 192.045 98.7848 192.399 98.5426C194.066 97.4036 195.841 97.1179 197.711 97.9604C199.58 98.8029 200.173 100.358 200.198 102.231C200.231 104.635 200.198 107.04 200.235 109.462C200.253 110.392 199.833 110.659 198.976 110.652C198.119 110.645 197.718 110.363 197.74 109.433C197.79 107.235 197.783 105.033 197.74 102.831C197.711 100.687 196.897 99.7864 195.093 99.7936C193.162 99.7936 191.531 101.24 191.506 103.048C191.473 105.084 191.481 107.123 191.506 109.159C191.506 110.03 191.441 110.659 190.298 110.659C189.156 110.659 188.993 110.045 189.004 109.097C189.036 105.919 189.004 102.741 189.025 99.5622C189.025 98.9222 188.729 97.9568 189.749 97.9279C190.266 97.9279 190.797 98.5353 191.321 98.868L191.354 99.291Z" fill="white"/>
<path d="M131.385 109.144C130.496 109.661 129.776 110.204 128.97 110.525C125.846 111.773 122.931 110.196 122.606 106.873C122.338 104.172 122.498 101.424 122.498 98.698C122.498 97.8229 123.177 97.8302 123.806 97.8085C124.53 97.7796 124.967 98.0399 124.964 98.8535C124.949 100.845 124.949 102.839 124.964 104.838C124.946 105.407 124.981 105.978 125.068 106.541C125.463 108.544 127.448 109.397 129.183 108.298C130.423 107.513 131.157 106.443 131.103 104.874C131.035 102.961 131.103 101.045 131.078 99.1355C131.06 98.2171 131.36 97.7759 132.336 97.7976C133.313 97.8193 133.591 98.2641 133.58 99.1753C133.544 102.35 133.58 105.528 133.551 108.703C133.551 109.365 133.934 110.261 132.9 110.562C131.779 110.887 131.703 109.907 131.385 109.144Z" fill="white"/>
<path d="M209.939 82.6581C208.038 83.1897 207.553 83.0197 206.627 81.7108C205.778 80.4923 204.942 79.2665 203.984 77.878C203.03 79.2339 202.216 80.391 201.402 81.5409C201.167 81.8735 200.979 82.3906 200.679 82.4846C199.966 82.6386 199.24 82.7294 198.51 82.7558C198.609 82.2425 198.774 81.7442 199.002 81.2733C199.942 79.8486 200.918 78.4457 201.952 77.0861C202.429 76.457 202.429 76.0014 201.952 75.365C200.744 73.7451 199.613 72.0637 198.445 70.3968C199.859 69.6303 200.867 69.8291 201.674 70.9717C202.303 71.8685 202.954 72.7544 203.525 73.6909C204.02 74.5044 204.364 74.3959 204.823 73.6728C205.369 72.8158 206.045 72.0384 206.551 71.1598C207.249 69.9485 208.222 69.7677 209.636 70.1871C209.46 70.5839 209.26 70.9691 209.036 71.3406C208.132 72.6423 207.228 73.9476 206.262 75.2023C205.741 75.8857 205.676 76.4425 206.219 77.1548C207.304 78.5795 208.312 80.0475 209.336 81.5155C209.562 81.8824 209.764 82.2642 209.939 82.6581V82.6581Z" fill="white"/>
<path d="M135.927 104.104C135.927 98.0364 140.924 96.5503 144.583 98.0183C144.81 98.148 145.007 98.3237 145.161 98.5342C145.316 98.7448 145.424 98.9854 145.48 99.2405C145.621 99.8986 145.321 100.224 144.475 100.072C143.334 99.8574 142.17 99.799 141.014 99.8986C139.879 100.007 139.206 100.85 138.845 101.942C138.274 103.489 138.322 105.198 138.979 106.711C139.315 107.47 140.146 108.327 140.902 108.519C142.034 108.783 143.299 108.472 144.518 108.439C144.966 108.449 145.412 108.485 145.856 108.548C145.696 109.13 145.504 109.704 145.281 110.265C145.209 110.424 144.854 110.468 144.623 110.544C139.669 112.189 135.938 109.426 135.927 104.104Z" fill="white"/>
<path d="M139.007 83.1897C135.153 83.0667 133.128 81.1576 132.861 77.3031C132.734 75.3578 132.861 73.4811 134.086 71.8323C135.829 69.482 139.51 69.3446 141.68 70.2811C142.479 70.6427 142.537 71.3839 142.247 72.0384C142.168 72.2228 141.361 72.2084 140.938 72.0999C137.814 71.3044 135.453 72.3928 135.337 75.8387C135.337 76.0002 135.337 76.1629 135.337 76.3268C135.337 80.2645 137.294 81.7144 141.087 80.6658C141.633 80.5139 142.414 79.9426 142.717 80.9406C142.956 81.7469 142.576 82.3869 141.716 82.6111C140.855 82.8353 139.915 82.9944 139.007 83.1897Z" fill="white"/>
<path d="M212.771 76.2111C212.771 75.2746 212.724 74.3345 212.771 73.4016C212.818 72.4687 212.547 71.9336 211.487 71.9842C211.205 71.9842 210.909 71.6768 210.619 71.5105C210.804 71.1923 210.941 70.6391 211.176 70.5957C212.803 70.2956 213.038 68.9939 213.346 67.7464C213.497 67.1498 213.548 66.4736 214.43 66.5676C215.417 66.6725 215.197 67.4427 215.24 68.0646C215.26 68.2666 215.26 68.4701 215.24 68.6721C215.121 69.6556 215.483 70.1003 216.531 70.028C216.763 70.0043 216.998 70.027 217.221 70.0946C217.445 70.1623 217.653 70.2736 217.833 70.4221C218.429 71.1091 217.833 72.0782 216.839 71.9878C215.475 71.8649 215.161 72.4434 215.222 73.6728C215.305 75.3795 215.222 77.097 215.258 78.8073C215.287 80.2536 215.62 80.5971 217.066 80.6586C217.808 80.6911 218.22 80.9117 218.227 81.7144C218.234 82.5171 217.912 82.8932 217.092 82.9727C214.398 83.2331 212.883 81.9675 212.753 79.2665C212.709 78.2504 212.753 77.2308 212.753 76.2111H212.771Z" fill="white"/>
<path d="M161.375 104.097C161.375 103.406 161.375 102.715 161.375 102.021C161.4 100.882 161.639 99.6166 159.773 99.8263C159.611 99.8444 159.238 99.4647 159.253 99.2911C159.278 98.9766 159.48 98.4378 159.672 98.4089C161.451 98.1522 161.639 96.7275 161.975 95.4077C162.127 94.7966 162.406 94.1964 163.089 94.4929C163.451 94.652 163.653 95.2992 163.841 95.7585C163.903 96.0371 163.903 96.3259 163.841 96.6046C163.765 97.5049 164.17 97.8773 165.06 97.8159C165.783 97.7653 166.47 97.8159 166.47 98.8464C166.47 99.8769 165.859 99.9818 165.089 99.895C164.123 99.7865 163.794 100.188 163.827 101.146C163.888 102.976 163.827 104.809 163.87 106.639C163.906 108.103 164.232 108.352 165.66 108.573C165.883 108.63 166.09 108.737 166.266 108.885C166.442 109.034 166.582 109.22 166.676 109.43C166.889 110.095 166.51 110.587 165.783 110.753C163.581 111.252 161.632 109.9 161.444 107.637C161.339 106.465 161.426 105.279 161.426 104.097H161.375Z" fill="white"/>
<path d="M147.566 73.7127C147.566 76.2763 147.544 78.8436 147.566 81.4072C147.566 82.3835 147.346 82.9439 146.221 82.9439C145.024 82.9439 145.068 82.1882 145.068 81.3855C145.068 76.8657 145.068 72.3459 145.068 67.8261C145.068 67.0631 145.068 66.3797 144.287 65.9278C144.16 65.8105 144.063 65.6647 144.004 65.5025C143.945 65.3402 143.925 65.1662 143.947 64.9949C143.972 64.8105 144.431 64.6803 144.71 64.5537C144.829 64.532 144.952 64.532 145.071 64.5537C147.512 64.4706 147.537 64.4959 147.537 66.886L147.566 73.7127Z" fill="white"/>
<path d="M114.619 71.7418C115.071 71.3513 115.382 70.9536 115.787 70.7619C116.457 70.405 117.181 70.1607 117.931 70.0387C118.158 70.0659 118.375 70.1497 118.561 70.2824C118.747 70.415 118.897 70.5924 118.997 70.7981C119.2 71.4164 119.099 72.0492 118.213 72.2878C115.457 73.0327 114.959 73.7341 114.959 76.5545C114.959 78.225 114.937 79.8919 114.959 81.5588C114.977 82.4411 114.742 82.9292 113.733 82.9256C112.724 82.922 112.456 82.5134 112.464 81.5986C112.493 78.1382 112.464 74.6779 112.464 71.2175C112.464 70.6354 112.435 70.0388 113.274 69.9954C113.997 69.9592 114.329 70.2882 114.384 70.9825C114.445 71.2404 114.524 71.494 114.619 71.7418Z" fill="white"/>
<path d="M171.966 104.245C171.966 105.872 171.944 107.499 171.966 109.126C171.984 110.016 171.836 110.616 170.733 110.634C169.63 110.652 169.453 110.084 169.46 109.188C169.489 106.501 169.525 103.814 169.438 101.132C169.438 100.499 168.95 99.8732 168.683 99.2477C168.545 98.9331 168.22 98.557 168.321 98.3256C168.422 98.0942 168.867 97.9134 169.193 97.8375C169.552 97.7906 169.916 97.7845 170.277 97.8194C171.81 97.8194 171.955 97.9785 171.959 99.4899C171.969 101.07 171.966 102.657 171.966 104.245Z" fill="white"/>
<path d="M170.534 92.9126C171.474 92.8186 171.926 93.2272 171.894 94.1637C171.85 95.328 171.011 95.1833 170.234 95.2267C169.344 95.2774 168.979 94.9085 168.979 94.0299C168.99 92.8837 169.713 92.8439 170.534 92.9126Z" fill="white"/>
</g>
<defs>
<clipPath id="clip0_11_1686">
<rect width="218.249" height="111.01" fill="white"/>
</clipPath>
</defs>
</svg>
