<svg width="22" height="22" viewBox="0 0 22 22" fill="none" xmlns="http://www.w3.org/2000/svg">
<path d="M11 1.375C11 0.615609 11.6156 0 12.375 0H20.625C21.3844 0 22 0.615609 22 1.375V20.625C22 21.3844 21.3844 22 20.625 22H12.375C11.6156 22 11 21.3844 11 20.625V1.375ZM12.375 19.9375C12.375 20.3172 12.6828 20.625 13.0625 20.625C13.4422 20.625 13.75 20.3172 13.75 19.9375C13.75 19.5578 13.4422 19.25 13.0625 19.25C12.6828 19.25 12.375 19.5578 12.375 19.9375ZM15.125 19.9375C15.125 20.3172 15.4328 20.625 15.8125 20.625C16.1922 20.625 16.5 20.3172 16.5 19.9375C16.5 19.5578 16.1922 19.25 15.8125 19.25C15.4328 19.25 15.125 19.5578 15.125 19.9375ZM13.0625 1.375C12.6828 1.375 12.375 1.6828 12.375 2.0625C12.375 2.4422 12.6828 2.75 13.0625 2.75H19.9375C20.3172 2.75 20.625 2.4422 20.625 2.0625C20.625 1.6828 20.3172 1.375 19.9375 1.375H13.0625ZM12.375 4.8125C12.375 5.1922 12.6828 5.5 13.0625 5.5H19.9375C20.3172 5.5 20.625 5.1922 20.625 4.8125C20.625 4.4328 20.3172 4.125 19.9375 4.125H13.0625C12.6828 4.125 12.375 4.4328 12.375 4.8125Z" fill="white"/>
<path d="M2.0625 2.75C0.923413 2.75 0 3.67341 0 4.8125V14.4375C0 15.5766 0.923413 16.5 2.0625 16.5H8.25V19.25H7.5625C7.1828 19.25 6.875 19.5578 6.875 19.9375C6.875 20.3172 7.1828 20.625 7.5625 20.625H9.625V15.125H2.0625C1.6828 15.125 1.375 14.8172 1.375 14.4375V4.8125C1.375 4.4328 1.6828 4.125 2.0625 4.125H9.625V2.75H2.0625Z" fill="white"/>
</svg>
