<svg width="68" height="68" viewBox="0 0 68 68" fill="none" xmlns="http://www.w3.org/2000/svg">
<g filter="url(#filter0_d_11_1650)">
<g clip-path="url(#clip0_11_1650)">
<rect x="15.25" y="12.1875" width="38.4375" height="35.625" fill="#31A8FF"/>
<path fill-rule="evenodd" clip-rule="evenodd" d="M27.5528 19.5075C25.8269 19.0739 24.0986 19.2131 22.2747 19.4972C22.2747 22.687 22.2681 25.7911 22.292 28.8956C22.293 29.0545 22.5316 29.3311 22.6862 29.3522C24.6752 29.6208 26.6533 29.6423 28.5133 28.7358C30.4375 27.7983 31.4177 25.838 31.1636 23.5364C30.933 21.4406 29.6922 20.0452 27.5528 19.5075V19.5075ZM63.5312 29.9827V1.53984C63.5312 0.557344 63.542 0.46875 62.5881 0.46875H5.63078C4.70313 0.46875 4.46875 0.557813 4.46875 1.49344V58.4508C4.46875 59.3967 4.58688 59.3981 5.50422 59.3981C24.5144 59.3986 43.5813 59.3939 62.5914 59.4155C63.3288 59.4164 63.5266 59.22 63.5247 58.4972C63.4994 48.9923 63.5312 39.4866 63.5312 29.9827V29.9827ZM30.415 32.7202C27.8102 33.6492 25.0938 33.7012 22.2812 33.4833V44.0625H17.125V43.4053C17.125 34.5483 17.0842 25.6922 17.0594 16.8356C17.0566 16.1002 17.1733 15.7448 18.002 15.6605C21.9077 15.2611 25.7912 14.812 29.6748 15.7228C33.8495 16.7011 36.2566 19.4611 36.4394 23.2744C36.6658 27.9966 34.5906 31.2309 30.415 32.7202V32.7202ZM51.1853 38.6986C50.9866 41.4037 49.4613 43.1798 46.9595 44.0386C43.6117 45.188 40.2822 44.9212 37.0103 43.6209C36.4745 43.4077 36.3709 43.1377 36.5477 42.5916C36.8697 41.595 37.1055 40.5703 37.3539 39.645C38.7372 40.0509 40.0525 40.5577 41.4152 40.7972C42.3775 40.9664 43.4177 40.867 44.3959 40.7138C45.273 40.5759 45.9039 39.9806 46.0478 39.0394C46.1941 38.0827 45.9058 37.2539 45.0611 36.7448C44.3898 36.3408 43.6502 36.0516 42.9409 35.7127C41.8005 35.1675 40.585 34.74 39.5331 34.058C35.3936 31.3734 36.7412 26.3784 39.5036 24.4973C40.9816 23.4914 42.617 23.0452 44.3678 22.9838C46.427 22.9116 48.4098 23.2669 50.3575 24.2133L49.3286 27.8644C48.513 27.5756 47.7536 27.2006 46.952 27.0516C46.0009 26.8744 45.0034 26.7755 44.0434 26.8537C42.7563 26.9592 42.0025 27.8475 42.0025 28.9491C42.0025 29.6016 42.25 30.1537 42.7942 30.4702C43.5752 30.9244 44.4039 31.2989 45.2252 31.6791C46.1139 32.0902 47.0523 32.4061 47.9078 32.8753C50.1906 34.1269 51.3789 36.0628 51.1853 38.6986Z" fill="#001E36"/>
</g>
</g>
<defs>
<filter id="filter0_d_11_1650" x="0" y="0" width="68" height="68" filterUnits="userSpaceOnUse" color-interpolation-filters="sRGB">
<feFlood flood-opacity="0" result="BackgroundImageFix"/>
<feColorMatrix in="SourceAlpha" type="matrix" values="0 0 0 0 0 0 0 0 0 0 0 0 0 0 0 0 0 0 127 0" result="hardAlpha"/>
<feOffset dy="4"/>
<feGaussianBlur stdDeviation="2"/>
<feComposite in2="hardAlpha" operator="out"/>
<feColorMatrix type="matrix" values="0 0 0 0 0 0 0 0 0 0 0 0 0 0 0 0 0 0 0.25 0"/>
<feBlend mode="normal" in2="BackgroundImageFix" result="effect1_dropShadow_11_1650"/>
<feBlend mode="normal" in="SourceGraphic" in2="effect1_dropShadow_11_1650" result="shape"/>
</filter>
<clipPath id="clip0_11_1650">
<rect x="4" width="60" height="60" rx="15" fill="white"/>
</clipPath>
</defs>
</svg>
