<svg width="68" height="68" viewBox="0 0 68 68" fill="none" xmlns="http://www.w3.org/2000/svg">
<g filter="url(#filter0_d_11_924)">
<rect x="4" width="60" height="60" rx="15" fill="#6181B6"/>
<path d="M34 17.4221C20.2931 17.4221 9.18056 23.0536 9.18056 30C9.18056 36.9465 20.2931 42.5779 34 42.5779C47.7069 42.5779 58.8194 36.9465 58.8194 30C58.8194 23.0536 47.7069 17.4221 34 17.4221ZM27.5418 32.4505C26.9495 33.0046 26.2918 33.2334 25.5675 33.469C24.8431 33.705 23.9213 33.6563 22.8005 33.6563H20.2602L19.5562 37.7188H16.5902L19.2369 23.9063H24.9406C26.6566 23.9063 27.9083 24.3999 28.6952 25.3005C29.4821 26.2012 29.7185 27.4797 29.4049 29.0937C29.2753 29.7587 29.0572 30.377 28.7492 30.9279C28.4301 31.4963 28.0226 32.0103 27.5418 32.4505V32.4505ZM36.1994 33.6563L37.3698 27.7982C37.5031 27.1124 37.4543 26.603 37.2232 26.3539C36.9916 26.1045 36.4993 25.9375 35.7465 25.9375H33.3943L31.8786 33.6563H28.9357L31.5824 20.25H34.5253L33.8217 23.9063H36.4432C38.093 23.9063 39.2305 24.2374 39.8565 24.8126C40.4825 25.3879 40.6702 26.176 40.42 27.4646L39.1886 33.6563H36.1994ZM52.5547 29.1152C52.4255 29.7802 52.2069 30.388 51.8994 30.9385C51.5914 31.4897 51.1893 31.9939 50.6924 32.4505C50.1001 33.0046 49.442 33.2334 48.718 33.469C47.9941 33.705 47.0715 33.6563 45.9507 33.6563H43.4104L42.7068 37.7188H39.7407L42.387 23.9063H48.0912C49.8072 23.9063 51.0588 24.3999 51.8453 25.3005C52.6314 26.2012 52.8683 27.5016 52.5547 29.1152V29.1152ZM46.9671 25.9375H44.9354L43.8276 31.625H45.6322C46.8273 31.625 47.7187 31.5072 48.3037 31.0563C48.8895 30.6062 49.2839 29.9074 49.4891 28.854C49.6857 27.842 49.5963 27.0527 49.221 26.6367C48.8452 26.2207 48.094 25.9375 46.9671 25.9375V25.9375ZM23.8169 25.9375H21.7849L20.677 31.625H22.4812C23.6768 31.625 24.5677 31.5072 25.1531 31.0563C25.7385 30.6062 26.1334 29.9074 26.3381 28.854C26.5348 27.842 26.4454 27.0527 26.07 26.6367C25.6946 26.2207 24.9439 25.9375 23.8169 25.9375Z" fill="white"/>
</g>
<defs>
<filter id="filter0_d_11_924" x="0" y="0" width="68" height="68" filterUnits="userSpaceOnUse" color-interpolation-filters="sRGB">
<feFlood flood-opacity="0" result="BackgroundImageFix"/>
<feColorMatrix in="SourceAlpha" type="matrix" values="0 0 0 0 0 0 0 0 0 0 0 0 0 0 0 0 0 0 127 0" result="hardAlpha"/>
<feOffset dy="4"/>
<feGaussianBlur stdDeviation="2"/>
<feComposite in2="hardAlpha" operator="out"/>
<feColorMatrix type="matrix" values="0 0 0 0 0 0 0 0 0 0 0 0 0 0 0 0 0 0 0.25 0"/>
<feBlend mode="normal" in2="BackgroundImageFix" result="effect1_dropShadow_11_924"/>
<feBlend mode="normal" in="SourceGraphic" in2="effect1_dropShadow_11_924" result="shape"/>
</filter>
</defs>
</svg>
